<?xml version="1.0" encoding="utf-8"?>
<!-- Generator: Adobe Illustrator 25.0.1, SVG Export Plug-In . SVG Version: 6.00 Build 0)  -->
<svg version="1.1" id="Camada_1" xmlns="http://www.w3.org/2000/svg" xmlns:xlink="http://www.w3.org/1999/xlink" x="0px" y="0px"
	 viewBox="0 0 2000 628" style="enable-background:new 0 0 2000 628;" xml:space="preserve">
<style type="text/css">
	.st0{fill:#C4C4C4;}
	.st1{fill:#C5C5C5;}
	.st2{fill:#C6C6C6;}
	.st3{fill:#FCFCFC;}
	.st4{fill:#FBFBFB;}
</style>
<path class="st0" d="M0,539c1.1,0.1,1.8-0.1,2.1-1.5c1.1-4.7,3.7-8.6,7-12.2c4.3-4.7,9.9-6.9,15.5-9.3c3.1-1.3,6.3-2.5,10.3-4.2
	c-2.4-2.2-4.1-3.7-5.8-5.2c-7.6-6.8-11.8-15.6-13.9-25.4c-1.5-6.9-1.2-13.9,0.6-20.9c0.8-3.1,1.1-6.4,1.9-9.6c1.2-5,4.5-9,6.3-13.8
	c-0.9-2-2-3.8-4.2-5.1c-4.8-3-6.3-8.3-7.6-13.4c-0.4-1.7,0.7-4.2,1.7-5.9c2-3.4,4.4-6.4,6.5-9.5c8.9,2.7,11,9.4,11.5,17.2
	c0.2,2.9,0.7,5.8,1.1,9.1c3.1-0.8,5.7-1.1,8-2c5.7-2.1,11.5-2.7,17.4-2.4c11.4,0.6,19.1,11.2,15.4,21.5c-0.6,1.8-1.3,3.5-3,5.1
	c0-2.6-0.1-5.1,0-7.7c0.2-8.2-6.4-13.8-13.9-14c-5.3-0.1-10.5,0.1-15.5,2c-8.1,2.9-13.6,8.5-16.5,16.4c-1.9,5.1-2.9,10.6-4.3,15.8
	c2.4,1.9,4.2,0.6,5.8-0.4c2.4-1.5,4.8-2,7.6-1.8c4.4,0.4,8.9,0.6,13.3,1.1c1.2,0.1,2.4,0.9,3.7,1.4c-0.2,3.4-2.7,5-5,6.5
	c-3.4,2.1-7.2,3.1-11.2,3.1c-4.5,0-8.9,0-13.5,0c-1.4,4.6,0.6,8.4,2.2,12c3.6,7.8,8.7,14.8,15.4,20.4c5.8,4.8,12,9.1,18.4,13
	c4.5,2.8,9.2,4.7,14.3,6.9c0.8-5.7-0.1-11.2,1.2-16.5c1.4-5.4,5.1-9.4,7.5-14.3c2.1-1.2,4,0,5.4,1.1c4.9,4,8.1,9,8.2,15.6
	c0.1,5.8-0.6,11.5-1.9,17.1c-0.2,0.9,0,2,0,3.6c2.3,0.6,4.7,1.5,7.2,1.9c8.5,1.4,16.9,2.1,25.5,0.6c4.5-0.7,9-1.3,13.5-2.1
	c8-1.4,15.4-3.9,22.6-7.5c2.3-1.2,4.6-2.4,7.6-4c-9.6-3.5-18.4-6.7-24.6-14.9c-6-7.9-8.4-16.7-10.1-26c4.9-1.1,15.6-0.5,20.9,0.1
	c4.2,0.5,7.9,2,11.5,4c5.1,2.8,7.5,7.6,10.3,12.3c1.8,3,3.5,5.9,5.4,8.7c2.6,3.7,3.9,4,7.4,1.4c3.1-2.2,5.9-4.7,8.9-7
	c5.6-4.4,10.2-9.9,15-15.1c6.6-7.2,13-14.5,19.1-22.1c3.5-4.3,6.1-9.3,9.1-14c0.4-0.6,0.5-1.5,0.7-2.3c-3.1-0.9-11.2-1.1-13.8-0.5
	c-0.6,0.2-1.2,0.5-1.9,0.6c-11.1,1.4-22.2,1.6-33.3,0.9c-8.7-0.6-17.3-2.7-25.8-5.1c-11-3.1-21.6-7.3-31.8-12.5
	c-12.5-6.5-24.3-14-33.5-24.8c-4.8-5.6-9.1-11.6-13.1-17.8c-3.4-5.2-6.1-10.9-9-16.4c-3.8-7.2-6-15.1-8-23c-1.5-6-2.7-12-3.9-18.1
	c-0.2-1.1-0.1-2.3-0.1-3.5c0-4.7,0.1-9.3-0.1-14c-0.3-12.9,2.5-25.3,6.4-37.5c3.2-9.8,7.3-19.2,12.2-28.3
	c5.1-9.4,10.7-18.4,18.1-26.2c2.4-2.5,4.4-5.4,6.9-7.8c12.5-11.9,26.8-20.8,43-27.1c8.9-3.4,18-5.4,27.1-7.7
	c3.6-0.9,7.5-0.9,11.2-1.2c3.8-0.3,7.6-1.1,11.3-0.9c12,0.8,24.1,1.8,35.6,5.9c9.1,3.2,17.9,7,26.1,12.3c8,5.1,15.2,11,21.6,17.9
	c4.6,4.9,8.2,10.6,11.7,16.4c4.8,7.7,7.9,16.1,10.2,24.8c1.4,5.1,2.7,10.4,2.6,15.9c-0.1,3.8,0.9,7.5,0.8,11.3
	c-0.4,15-3,29.4-9.1,43.3c-3,7-6.6,13.6-11.1,19.6c-5.3,7.1-11.6,13.4-18.9,18.8c-11.8,8.7-25.2,13.3-39.2,16.9
	c-10.3,2.7-20.8,2.6-31,1.7c-12.6-1.2-24.4-5.7-34.7-13.4c-10.9-8.1-18.8-18.6-24-31.2c-2-4.9-4.1-9.8-4.5-14.8
	c-0.5-6.1-2.8-12.2-0.5-18.6c0.9-2.5,0.7-5.5,1.1-8.2c1.6-10,6.2-18.8,12-27c5.9-8.4,13.9-14.6,22.8-19.3c4.9-2.5,10.3-3.9,15.9-4.2
	c8.2-0.4,16.1,0.7,23.5,4.2c13.9,6.6,22.3,17.7,25.8,32.7c3.1,13.5-0.5,25.4-9.2,35.7c-4.6,5.5-10.9,8.8-17.9,10.6
	c-5.2,1.3-10.3,1.6-15.3-0.8c-6.5-3.1-10.2-8-11.8-15.3c-1.6-7.4,0.3-14.3,1.4-21.3c0.1-0.5,0.8-1,1.3-1.6c1.6,2.1,3,4.1,4.5,6
	c3.7,5,8.4,7.7,14.8,7.1c1.9-0.2,3.4-1.1,3.9-2.6c2.5-7.8,3.7-15.5-0.1-23.4c-2.3-4.8-6.6-7.2-11.2-8c-8.1-1.3-15.5,1.3-21.9,6.7
	c-6.8,5.7-10.2,13.2-12.5,21.3c-4,14.3-2.8,27.9,5.8,40.4c5.5,8,13,13.5,21.8,17.3c10.1,4.4,20.9,5.2,31.5,3.9
	c11.6-1.5,22.3-5.8,31.8-13c8.7-6.6,15.9-14.6,20.7-24.2c3.8-7.5,6.9-15.3,8.6-23.8c1.5-7.4,1.8-14.7,1.8-22.1
	c0-12.7-4.3-23.9-10.9-34.6c-7.4-11.8-17.7-20.3-29.7-26.8c-7.8-4.2-16.3-7.5-25.1-9.2c-3.7-0.7-7.6-0.4-11.2-1.3
	c-4.8-1.2-9.5-0.8-14.3-0.9c-6.9-0.1-13.6,1.5-20.4,2.6c-8.8,1.5-16.9,5-24.8,8.7c-7.5,3.6-14.3,8.5-20.7,14
	c-13.8,11.6-23,26.4-30.3,42.5c-3.9,8.6-6.3,17.8-7.6,27.1c-0.8,6-1.9,12-1.9,18c0,9.6,1.6,19.2,4.1,28.5
	c3.8,14.2,10.5,27.1,19.5,38.6c8.6,11,19.3,19.6,31.2,27c11.7,7.2,24.6,11.2,37.6,14.6c3.4,0.9,7.2,0.7,10.7,1.3
	c6.1,1.1,12.2,1.3,18.3,0.8c10.4-0.8,20.8-1.9,30.9-4.8c10.8-3.1,21.4-6.8,31.5-11.7c7.6-3.8,15-8.1,21.9-13
	c7.6-5.3,14.8-11.1,21.1-17.9c12.1-13,21.7-27.6,26.5-44.8c2.4-8.4,4.5-16.9,5.6-25.7c2.3-17,2.1-34,1.6-51.1
	c-0.2-6.4-0.1-12.9-0.9-19.3c-0.6-5.1-0.2-10.3-1-15.3c-0.9-5.6-0.2-11.3-1-16.8c-1.1-7.8-0.1-15.6-1.1-23.3
	c-0.9-7.1-0.7-14.2-0.7-21.3c0-8.3,0.5-16.5,1-24.8c0.5-7.2,1-14.4,2-21.6c1.4-10.5,2.9-21,5.1-31.3c2.2-10.3,4.6-20.6,8-30.6
	c5-15,11.4-29.5,19.5-43.2c1.5-2.6,3.6-5.2,3.4-8.6c2,0,4,0,6,0c0.2,0.2,0.5,0.5,0.7,0.7c0.1-0.2,0.2-0.5,0.3-0.7c0.7,0,1.3,0,2,0
	c0.3,0.6,0.5,1.6,1,1.9c3.5,1.8,7.1,3.3,10.6,5.1c2.6,1.3,3.1,2.1,2,4.6c-1.6,3.9-3.1,7.8-5.1,11.6C398.9,33.9,393.1,44.5,389,56
	c-3.6,10.1-6,20.6-8,31.1c-1.2,6.2-2.7,12.4-3.1,18.8c-0.5,6.8-1.9,13.6-2.8,20.3c0,0.2,0,0.3,0,0.5c-0.3,5.8-0.6,11.5-1.1,17.3
	c-1.3,14.7-1.2,29.5-0.8,44.3c0.2,7,0.8,14.1,1.7,21.1c0.7,5.9,1.7,11.7,4,17c3.4,7.8,7.1,15.5,12.3,22.3c1.8,2.5,3.5,5,5.5,7.8
	c3.5-2.3,6.8-4.1,9.8-6.4c5.9-4.5,12.6-4.3,19.4-4c0.5,0,0.9,0.3,1.4,0.6c2.3,1.2,5.5,1.7,5.8,4.8c0.3,3.2-2,5.7-4.4,7.3
	c-5.5,3.6-11.2,6.7-16.8,10c-0.5,0.3-1.1,0.6-1.9,1.1c3.2,4.9,8,7.9,12.9,10.5c8.6,4.5,17.5,8.1,28,7.8c0.4-2.7,1.2-5.4,1.3-8
	c0.2-5.3,3.9-9.9,9-11.6c2-0.7,3.4-0.4,3.9,1.5c1,3.7,2.9,7.3,1.5,11.4c-0.6,1.6-0.3,3.5-0.5,5.8c5.9-1.3,10.9-3.4,16-5.4
	c4.9-2,9.6-4.2,15.3-6.3c-0.6,3.4-2.7,4.4-4.1,5.9c-1.2,1.3-1.6,2.4-0.4,3.9c1.1,1.4,2,3.1,3.3,4.2c4.7,3.8,5.8,8.9,6,14.5
	c0.1,1.8,0.4,3.5,0.6,6c-3.5,1.6-7.6,2.5-11.8,1.9c-3.5-0.5-6.4-2.7-7.9-6.1c-1.5-3.3-2.6-6.6-3.9-10c-0.4-0.9-0.7-1.8-1-2.7
	c-0.7-1.8-1.8-2.4-3.9-1.7c-5.6,1.8-11.4,2.4-17.3,2.9c-5.1,0.4-10-0.4-15.1-0.4c-3.6,0-7.2-1.6-10.9-2.4c-1.1-0.2-2.2-0.3-3.2-0.5
	c-1.6,3,0.2,5.3,0.7,7.8c0.5,2,1.4,4,1.6,6.1c0.9,7.4-3.6,12.3-8.7,17.4c-4-1.5-8.1-3.1-12.1-4.7c-5.8-2.3-9-10.4-7.6-17
	c1.4-6.1,3.4-11.9,6.4-17.4c1.8-3.4,1.6-3.5-1.5-6.4c-6.5-5.9-12.2-12.6-17.4-19.7c-3.8-5.3-7.6-10.6-11.8-16.6
	c-0.1,1.8-0.2,2.8-0.3,3.9c-0.4,17.4-0.3,34.9-1.2,52.3c-0.4,8.2-1.5,16.5-3.3,24.7c-3.3,14.4-7.6,28.5-11.1,42.9
	c-1.4,5.9-1.3,12.1-1.5,18.2c-0.4,10.2,3.2,19.3,8.7,27.1c5.2,7.4,12.3,13.2,21.2,16.5c4.6,1.7,9,3.7,14,4.3
	c1.5,0.1,2.9,0.6,4.3,0.6c4.2,0.1,8.3,0.2,12.5,0c16-0.6,27.7-8.1,35.5-22c3.7-6.6,5.2-13.6,5.1-21.2c0-6.3-0.8-12.4-3.1-18.3
	c-3.3-8.3-8.6-15-16.4-19.6c-5.6-3.4-11.6-6-18.2-6.8c-8.4-1-16.3,1.1-23.5,5.5c-7.1,4.4-11.5,11-13.5,18.8
	c-2.8,11-0.4,20.9,7.7,29.3c5.3,5.6,11.7,8.1,19.3,8.3c4.6,0.2,8.3-1.9,11.6-4.6c4.7-3.8,6.9-9.3,7.8-14.9
	c0.9-5.4-1.2-10.4-5.8-13.9c-3.2-2.4-5.9-2.2-8.8,0.6c-4.9,4.7-5.6,9.1-2.4,15.5c0.8,1.6,1.5,3.2,2.2,4.8c-6.1,2.4-13.4-4.2-14-9.9
	c-0.6-6.4,0.9-12.1,5.6-16.7c1.1-1,2.1-2.1,3.2-3.2c1.8-1.8,4-2.5,6.7-2.7c5.3-0.5,9.8,1,13.8,4.2c3.9,3.1,6.9,6.9,8.8,11.6
	c2.3,5.8,2.6,11.5,0.3,17.2c-2.8,6.9-7.1,12.3-13.7,16.2c-7.5,4.5-15.5,5.7-23.8,4.6c-8.6-1.1-15.9-5.1-21.4-12.5
	c-4.4-5.9-6.2-12.3-7.8-19.3c-1.9-8.7,1-16.4,3.4-24.3c0.6-2.1,2.1-4.1,3.5-5.9c6-6.9,12.7-13,21.9-15.1c3.3-0.8,6.7-1.4,10.1-1.7
	c2.8-0.3,5.7,0,8.5-0.1c9.7-0.3,18.5,2.8,26.2,8.3c10,7.2,16.4,17.2,19.5,29.2c1.5,5.7,2.6,11.6,2,17.5c-1.1,10.5-3.8,20.5-10.5,29
	c-9.2,11.8-21.2,18.5-35.9,21c-16.2,2.7-31.1-0.4-45.2-8.8c-4.8-2.9-9.5-6.1-13.4-10c-8.2-8.2-14.4-17.8-17.1-29.3
	c-0.3-1.2-0.8-2.4-1.2-3.7c-2.9-0.9-4.9,0.5-6.8,2.2c-6.4,5.7-12.7,11.6-19.3,17.1c-5.9,5-12.1,9.5-18.3,14.2
	c-7.6,5.7-15.2,11.5-22.9,17c-8.9,6.4-17,13.7-24.5,21.6c-11,11.4-19.3,24.3-22.8,40c-0.7,3.2-0.9,6.5-1.4,9.7
	c-0.2,1.5-0.5,2.9-0.7,4.3c-0.1,0.8-0.3,1.7-0.2,2.4c0.7,6.2,1,12.4,2.2,18.5c1.1,5.7,2.8,11.3,4.8,16.8c3.2,9,8.1,17.1,14.2,24.6
	c1.7,2,3.3,4.1,5.1,6c12,12.6,26.4,21.5,43.2,26.2c3.6,1,7.4,1.2,11,2.1c3.9,1,7.9,1.1,11.8,0.9c9.8-0.5,19.2-2.8,28.4-6.7
	c11.7-5.1,20.9-13.2,29-22.6c9.1-10.5,15.2-22.8,19-36.1c0.9-3.1,0.9-6.5,1.3-9.7c0.2-1.5,0.5-2.9,0.8-4.3c0.1-0.8,0.3-1.7,0.2-2.5
	c-1.2-7.2-1.4-14.6-4.1-21.5c-4.7-12-11.6-22.2-22-30.3c-7.1-5.6-14.7-9.6-23.3-12.3c-3.5-1.1-6.9-1.8-10.5-1.9
	c-3.7-0.2-7.3-0.3-11,0c-10.9,0.7-20.3,4.8-28.4,12c-6.5,5.8-12.1,12.5-15.9,20.6c-4.5,9.8-7.1,20-5.6,30.6
	c1.7,12.5,6.8,23.5,18,30.8c7.7,5,16,6.4,24.9,4.1c11.5-3,20.4-9.9,26.7-19.7c3.8-5.8,5.2-12.7,1.6-19.2c-3.9-7.1-9-10.2-16.6-8.9
	c-3.1,0.5-6.2,2.3-8.7,4.3c-5.1,4.2-3.7,10.3,2.6,12.6c2.1,0.8,4.2,1.6,6.5,2.5c-2.7,5.5-6.1,9.5-11.4,12.3
	c-5.1,2.7-13.5-0.2-15.7-4.5c-2.4-4.7-3.7-9.3-2.5-15c1.2-5.8,3.4-11,6.3-15.8c3.2-5.3,7.8-9.2,13.7-11.5c7.2-2.8,14.6-3.1,21.7-0.8
	c12.6,4.1,20.4,13,22.4,26.2c1.1,7.2-0.8,14.3-3.6,21.1c-2.5,6.2-6.3,11.6-10.8,16.3c-6.6,7-14.7,12.3-24,14.9
	c-7.6,2.1-15.5,2-23.5,0.5c-8.5-1.6-16.3-4.9-23.2-9.9c-10.5-7.6-17.8-17.8-21.5-30.4c-2.4-8.4-2.8-16.9-1.6-25.7
	c1.5-11.4,6.2-21.2,12.2-30.7c9.1-14.4,22-24.1,38-29.8c10.1-3.5,20.6-4.6,31.1-3.4c9.2,1,18.2,3.1,26.8,7
	c9.1,4.1,17.2,9.5,24.3,16.5c7.6,7.5,12.5,16.8,16.9,26.4c3.4,7.5,5.1,15.5,5.8,23.6c0.7,7.5,0.7,15.1-0.5,22.8
	c-1,6.3-2.1,12.5-4.1,18.5c-4.8,14.4-12.4,27-23.1,37.8c-6.8,6.9-14.3,12.8-22.8,17c-8.4,4.2-17,8.3-26.6,9.2
	c-1.4,0.1-1.6,0.9-1.5,2c-1,0-2,0-3,0c-0.1-0.2-0.2-0.5-0.3-0.7c-0.2,0.2-0.5,0.5-0.7,0.7c-9.3,0-18.7,0-28,0
	c-0.2-0.2-0.5-0.5-0.7-0.7c-0.1,0.2-0.2,0.5-0.3,0.7c-1,0-2,0-3,0c-0.3-0.7-0.5-1.7-1-1.9c-1.1-0.3-2.3,0-3.4-0.3
	c-11.9-3.6-23.3-8.3-33.7-15.3c-10.3-6.9-18.9-15.3-26.7-24.8c-7.4-8.9-12.7-19-16.6-29.8c-3.8-10.4-6.1-21-5.5-32.2
	c0.1-2.7,0-5.3,0.1-8c0-1-0.1-2,0.1-3c1.9-5.9,2-12,1.8-18.1c0-0.9-0.3-1.7-0.7-3.6c-18.5,19.7-38.2,36.3-63.7,45.7
	c0.6,3.5,1.1,7,2,10.4c2.1,8,3.6,16,1.3,24.2c-1.5,5.3-3.3,10.5-7.9,13.8c-3.7,2.6-7.8,4.9-12,6.6c-6.1,2.5-12.6,4.3-18.8,6.6
	c-1.8,0.7-3.4,0.8-5.2,0.1c0-9.3-0.2-18.5,0.1-27.6c0.2-5.2,1.7-10.1,5.6-14.3c3.4-3.7,6.8-7.9,8.4-13.6c-6.7,0-12.9,0-19.2,0
	c-6.1,0-12-1.2-17.9-2.6c-8.9-2.1-17.3-5.7-25.5-9.6c-3.4-1.6-6.7-3.5-10.1-5c-3.3-1.5-5.5-0.9-7.2,1.9c-2,3-4.1,5.9-5.9,9
	c-2.9,4.8-7.2,7.7-12.4,8.9s-10.6,2-15.9,2.3c-4.2,0.2-8.4-0.6-12.7-0.9c0-1.7,0-3.3,0-5c0.2-0.2,0.5-0.5,0.7-0.7
	c-0.2-0.1-0.5-0.2-0.7-0.3C0,540.3,0,539.7,0,539z"/>
<path class="st0" d="M2000,261c-0.7,0.3-1.8,0.6-1.9,1c-1.5,7.5-2.8,15-4.1,22.5c-1.1,6.4-1.1,6.4-7.9,6.4c-1.5,0-3,0-4.8,0
	c-0.1-1.1-0.4-2.1-0.2-3c3.3-13-5.6-23.7-16.3-26c-4.3-0.9-8.7-2-13-1.9c-7.3,0.3-14.8,0.4-21.5,3.9c-7.5,3.9-12.1,9.8-13.5,18.7
	c-1.6,10.3,2.8,18.3,7.8,26.4c4.5,7.3,10.4,13.6,16,20c8.4,9.5,17.3,18.5,24.3,29.2c3.8,5.9,7.7,11.8,9.2,18.8
	c0.3,1.6,0.9,3.2,0.9,4.8c-0.1,4.9,0.5,9.9-0.9,14.8c-2,6.9-5.2,13.1-9.9,18.4c-8.6,9.8-18.7,17.6-30.6,22.9
	c-8.8,3.9-17.8,6.8-27.5,8.1c-6.8,0.9-13.6,1-20.3,0.6c-7.1-0.3-14.2-1.3-21.1-3.5c-7.1-2.3-14.3-4.4-21.9-6.7
	c0.5-1.2,0.7-2.4,1.4-3.1c7.2-7.2,14.4-14.3,21.8-21.7c2.9,1.8,5.8,3.5,8.7,5.4c8.6,5.6,18,9,28.1,10.9c9.5,1.8,18.7,1.3,27.5-2.3
	c8.7-3.5,15.4-9.6,17.5-19.2c0.6-2.8,0.4-5.9-0.2-8.8c-1.6-7.3-5.8-13.5-10.4-19.2c-5.5-6.8-11.7-13.1-17.4-19.7
	c-8.7-9.9-17.9-19.3-24.7-30.7c-5.3-8.8-8.4-18.4-6.7-28.6c1.6-9.2,5.5-17.5,11.5-25.1c7.7-9.6,17.4-16.5,28.2-21.9
	c6.8-3.4,14-5.7,21.8-6.9c8.3-1.3,16.6-1.1,24.8-0.5c7.7,0.6,15.4,2.3,22.7,5.3c0.9,0.4,1.9,0.3,2.9,0.4c0,2,0,4,0,6
	c-0.2,0.2-0.5,0.5-0.7,0.7c0.2,0.1,0.5,0.2,0.7,0.3C2000,259,2000,260,2000,261z"/>
<path class="st0" d="M576.8,267.7c-11.4,5.5-22.7,10.9-34.2,16.4c-1-2.1-0.8-4.2-0.5-6c2-10.2,4-20.4,7.8-30.1
	c3.6-9.6,8.6-18.3,14.9-26.3c9.6-12.3,22.1-20.4,35.9-26.9c9.6-4.6,19.8-7.3,30.1-9.7c6.5-1.5,13-2.9,19.6-3.9
	c4.5-0.7,9.2-0.5,13.8-1.2c6.6-1.1,13.3-0.2,19.8-1.1c10.3-1.4,20.6-0.9,30.8-0.6c6.1,0.2,12.2,0.4,18.3,0.9c8,0.6,16,1.4,23.8,3.1
	c8.5,1.8,17.1,3.9,25.1,7.8c8.8,4.3,15.9,10.6,20.2,19.4c2.3,4.7,3.9,9.7,4,15c0,1.3,0.4,2.6,0.6,3.9c0.2,1.6,0.5,3.3,0.3,4.9
	c-1.1,7.9-2.3,15.8-5.1,23.3c-2.5,6.6-6.2,12.6-9.8,18.6c-5.7,9.5-13.3,17.3-21.4,24.6c-5.6,5-11.9,9.1-18.5,12.9
	c-10.9,6.2-22.5,10.2-34.5,13c-5.7,1.3-11.6,1.9-17.4,2.6c-6.5,0.8-12.9,0.4-19.3,0.8c-0.8,0-1.6,0-2.9,0c1.1-4.1,3.1-7.2,5.6-9.9
	c0.8-0.9,2.7-1.1,4.1-1c7,0.4,13.9-0.7,20.5-2.3c8-2,15.8-5,22.9-9.6c9.7-6.5,18.1-14.3,24.6-24.1c5.5-8.3,9.1-17.3,10.5-27.1
	c0.5-3.9,1.5-7.7,1.8-11.6c0.2-2.6-0.4-5.2-0.7-7.8c-0.4-3.2-0.5-6.6-1.3-9.7c-2.4-9.5-7.3-17.3-15.5-23.1c-8.5-6-17.9-9-28-10.9
	c-7.5-1.4-15-1.8-22.6-1.8c-3.3,0-3.3,0.3-4,3.6c-1.3,7-2.8,14-4.2,21c-1,4.8-1.8,9.6-2.8,14.4c-1.1,5.6-2.2,11.2-3.3,16.7
	c-1.5,7.5-3.1,14.9-4.7,22.4c-1.6,7.8-3.2,15.6-4.8,23.4c-1.5,7.3-2.9,14.7-4.2,22c-2.6,14-5.1,28.1-10,41.6
	c-3.6,10.1-8.5,19.5-14.8,28.1c-2.8,3.8-6.2,7.2-9,11.1c-3.4,5-8.3,8.5-12.7,12.4c-4.1,3.7-8.8,6.8-13.3,10.2
	c-0.5,0.3-0.9,0.7-2,1.5c1.6,0.3,2.3,0.5,3,0.5c19.4,0.4,38.8,0.7,58.3,1.1c1.7,0,3.6-0.5,5.4,0.6c-0.2,0.6-0.3,1.1-0.6,1.4
	c-7.2,7.6-14.5,15.1-21.6,22.8c-1.6,1.8-3.4,2.3-5.7,2.2c-11.6-0.4-23.2-0.1-34.8-1.3c-7.8-0.8-15.6,0-23.3-0.9
	c-8.3-1-16.6-0.1-24.8-1.1c-6.8-0.8-13.5-0.4-20.3-0.8c-1,0-1.9-0.2-3.5-0.3c0.7-1.4,1-2.5,1.7-3.2c1.8-2,3.7-3.8,5.6-5.7
	c5.4-5.1,10.9-10.2,16.2-15.4c1.7-1.6,3.3-2.5,5.7-2.4c3.3,0.2,6.7,0,10,0c7.6,0.1,14.6-2.3,20.8-6.4c5.9-3.9,9.9-9.8,12.3-16.4
	c3.2-9,6.5-18.1,8.6-27.4c2.4-10.4,5.3-20.8,6.7-31.4c0.7-5.8,3-11.3,3.7-17.1c1.2-9.4,3.8-18.5,5.3-27.8
	c1.8-10.9,4.6-21.6,6.8-32.4c1.6-7.8,2.7-15.7,4.2-23.6c0.9-4.6,2-9.2,3-13.8c1-4.8,2-9.5,3-14.3c0.7-3.2,1.3-6.4,2-9.5
	c0.2-0.8,0-1.6,0-2.8c-4.5,0.1-8.6-0.2-12.9,0.6c-4.3,0.8-8.7,1.3-13,2.3c-2.4,0.6-4.7,1.2-7,2c-12.8,4.2-23.9,11-32.6,21.2
	c-7.9,9.2-12.9,19.8-14.7,32.1C577,256.6,577.4,261.8,576.8,267.7z"/>
<path class="st0" d="M1821.2,247c-1,4.4-1.9,8.3-2.8,12.2c-2.8,12.2-5.6,24.3-8.4,36.5c-1.9,8.2-3.9,16.4-5.6,24.7
	c-1.3,6-2.2,12.1-3.4,18.2c-1.4,7.4-2.8,14.7-4.3,22c-1.3,6.5-2.4,13.1-3.8,19.6c-1.1,5.2-2.4,10.4-3.4,15.7
	c-1.3,7.4-3.1,14.8-2.6,22.4c0.4,5.9,3,8.5,9,8.7c6.2,0.3,11.6-1.9,16.6-5.1c7.9-5.1,15.3-10.9,21.8-17.7c4-4.2,8.2-8.3,12.4-12.4
	c0.7-0.7,1.7-1.2,3.1-2.3c-0.8,4.6-1.5,8.4-2.2,12.1c-0.8,4-3.7,6.6-6.3,9.2c-4.7,4.8-10.2,8.9-15.1,13.6
	c-4.7,4.5-10.1,7.9-15.5,11.2c-8,4.8-16.2,9-25.6,10.5c-6,1-11.7,1.1-17.6-0.2c-8.2-1.9-13.5-7.1-15.5-15.2
	c-1.7-6.8-1.8-13.6-0.2-20.5c1-4.8,1.3-9.7,2.2-14.5c1.1-6.2,2.3-12.5,3.5-18.7c1.4-7.3,3-14.6,4.5-22c0.6-2.8,1.2-5.7,1.8-8.6
	c-2-1-3-0.1-3.9,1.6c-1.3,2.7-2.5,5.3-4,7.9c-5.7,9.9-11.3,19.9-17.2,29.7c-3.4,5.6-7,11-10.9,16.3c-3.4,4.6-7.2,9-10.8,13.4
	c-1.7,2-3.2,4.2-5.1,6c-10.9,10.3-22.3,20.1-37.2,24.1c-8,2.2-16.2,2.5-24.2-0.5c-5.1-1.9-9.1-5-11.7-10c-3.4-6.5-5-13.4-5-20.8
	c0-7.8,1.1-15.3,2.8-22.9c1.8-8.1,2.8-16.4,4.3-24.5c0.9-5,2-9.9,3-14.8c1-4.8,2-9.5,2.9-14.3c1.9-9.4,3.9-18.8,5.7-28.2
	c1.2-6.5,2.3-13.1,3.3-19.7c0.8-4.8,1.4-9.7,2-14.5c0.1-0.8,0.1-1.7,0-2.5c-0.6-5.8-5.5-9-11.4-8.2c-9.2,1.2-16.5,6.1-23.3,11.7
	c-7.2,6-14.1,12.5-21,19c-2.2,2.1-4,4.6-6.4,7.4c-1.6-3.3,0.7-5.6,0.3-8.1c-0.2-1.2,0.4-2.5,0.8-3.8c0.6-2.3,1.2-4.6,3.1-6.5
	c4.3-4,8.1-8.4,12.5-12.3c10.6-9.4,21.8-17.9,35.1-23.2c5.6-2.2,11.4-4.1,17.6-3.8c4.4,0.2,8.9-0.6,13.3,1
	c9.8,3.6,14.4,9.8,15.3,21.1c0.8,10.7-1.3,21.2-3.7,31.6c-1.8,7.8-2.7,15.7-4.3,23.5c-1.5,7.5-3.3,14.9-4.8,22.4
	c-1.5,7.5-2.7,15-4.2,22.5c-1.5,7.5-3.2,14.9-4.7,22.4c-0.6,3-0.8,6.1-1.3,9.2c-0.2,1.6-0.7,3.2-0.9,4.8c-0.5,3.8,0.4,7.5,1.4,11.2
	c0.9,3.4,3.8,5,7.5,5.4c5.6,0.7,10.1-1.9,14.2-4.8c7.2-5.1,14.1-10.8,19.5-18.1c3.6-4.9,8-9.2,11.8-14c4.9-6.1,10-12.2,14.4-18.7
	c7.5-11.1,14.7-22.4,21.9-33.8c3.3-5.3,6.3-10.7,9.1-16.3c1.3-2.6,1.6-5.6,2.2-8.4c1.7-7.9,3.4-15.9,5-23.8
	c1.8-9.4,3.4-18.9,5.1-28.3c0.2-0.9,0.8-1.8,0.9-2.8c0.2-2.3,1.4-3,3.6-3.1c10.1-0.3,20.2-0.7,30.3-1
	C1818.1,247,1819.4,247,1821.2,247z"/>
<path class="st0" d="M1198.5,444.9c0.7-4.1,1.2-7.5,1.9-10.8c2.1-9.3,4.3-18.6,6.6-27.9c1.4-5.7,3-11.3,4.3-17
	c1.4-6.3,2.4-12.8,3.7-19.1c1-5.2,2.2-10.5,3.3-15.7c0.9-4.8,1.8-9.6,2.7-14.4c1.1-5.6,2.2-11.1,3.3-16.7c1.5-7.5,3.1-14.9,4.6-22.4
	c1.1-5.2,2-10.5,2.9-15.8c0.5-2.7,0.8-5.5,1-8.3c0.1-1.3,0.2-2.7-0.1-4c-1.3-6.1-3.5-7.6-9.9-7.9c-7.7-0.3-13.8,3.3-19.8,7.4
	c-10.6,7.3-19.5,16.3-28.4,25.4c-1.4,1.4-2.8,2.8-5.1,5.1c0.7-4,1.2-6.9,1.8-9.7c0.1-0.3,0.5-0.6,0.4-0.9c-0.9-4.8,2.5-7.2,5.3-10
	c3.1-3.1,6.1-6.1,9.2-9.2c10.6-10.5,22.9-18.6,36.6-24.5c9.4-4,19.3-4.7,29.4-2.7c5.7,1.1,9.5,4.6,12.5,9c2.9,4.2,4.1,9.2,4.1,14.4
	c0.1,9.9-1.7,19.5-3.7,29.1c-1.6,7.5-2.8,15-4.3,22.5c-1.6,7.8-3.2,15.6-4.9,23.5c1.2,0.7,2.1,1.2,3-0.6c2.8-5.5,5.9-11,8.8-16.5
	c6.2-11.7,13.7-22.7,21.6-33.3c5.6-7.6,11.8-14.7,18.5-21.3c6.7-6.6,13.8-12.8,21.7-17.8c7.1-4.4,14.6-8.4,22.9-9.5
	c8.2-1.1,16.8-1.5,24.5,3.2c5.5,3.3,8.9,8.1,10.8,14.1c2.2,6.7,2.4,13.6,1.9,20.5c-0.4,5.2-1.4,10.3-2.3,15.5
	c-1.1,6.2-2.4,12.4-3.6,18.6c-1.5,7.6-3.1,15.3-4.7,22.9c-1.2,5.7-2.2,11.5-3.4,17.2c-1.5,7.6-3.2,15.2-4.7,22.9
	c-1.2,6.4-2,12.9-3.4,19.2c-1.4,6.3-2.2,12.6-1.9,19c0.2,5.2,3.1,8.1,8.3,8.4c6.3,0.3,12-1.7,17.2-5c7.9-5.1,15.3-10.9,21.8-17.7
	c4-4.2,8.2-8.3,12.4-12.4c0.8-0.8,1.7-1.4,3.4-2.8c-1.1,6-2.1,11-3.1,16c-0.1,0.4-0.5,0.9-0.9,1.2c-3.9,3.6-7.7,7.3-11.6,10.8
	c-3.2,2.9-6.4,5.7-9.7,8.5c-10.7,9.1-22.7,16.2-36.3,19.9c-6.8,1.9-13.9,2.3-21,0.4c-10.4-2.8-14.7-8.9-16.5-19
	c-0.5-2.7-1.2-5.6-0.9-8.3c0.8-7.1,1.9-14.2,3.1-21.3c1.1-5.9,2.5-11.8,3.7-17.6c1.9-9,3.8-18.1,5.7-27.2c1.2-5.6,2.2-11.1,3.3-16.7
	c1.4-7,2.7-14,4.1-21.1c1-5.1,1.9-10.2,3-15.3c1-4.8,2.1-9.6,1.9-14.5c-0.1-2.6-0.6-5.2-1.3-7.7c-1.3-4.4-7.4-7.2-11.7-6.3
	c-7.7,1.5-14.4,5.2-20.5,10c-4.2,3.4-8.3,7.1-12.1,11c-8,8.3-15.2,17.3-21.8,26.8c-7.9,11.6-15.7,23.4-23.2,35.2
	c-4.9,7.7-9.3,15.8-13.8,23.8c-0.9,1.6-1.3,3.7-1.6,5.6c-2.2,11.1-4.1,22.3-6.9,33.4c-1.8,7.2-2.8,14.7-4.2,22
	c-0.5,2.8-1.7,3.9-4.6,4c-8.1,0.4-16.2,0.7-24.3,1.1c-1.4,0.1-2.8,0.7-4.3,0.9C1202.4,445.1,1200.9,444.9,1198.5,444.9z"/>
<path class="st0" d="M1168,390.4c-0.3,1.5-0.7,3-1,4.5c-0.4,2.4-0.5,4.9-1.2,7.2c-0.5,1.8-1.4,3.7-2.7,5.1
	c-9.8,10.5-20.7,19.9-32.7,27.8c-9.1,5.9-19,10.4-29.7,11.8c-7.9,1-16.1,0.7-23.1-4.5c-5.2-3.9-7.9-9.1-8.4-15.3c-0.4-5-0.4-10,0-15
	c0.4-4.9,1.3-9.7,2.2-14.5c1.1-6.2,2.5-12.4,3.7-18.6c1.1-5.6,2.4-11.1,3.4-16.7c0.9-5.2,3.1-10.3,2.4-16.7
	c-1.3,1.1-2.3,1.6-2.8,2.4c-1.4,2.6-2.7,5.2-4,7.9c-5.1,10.5-10.9,20.5-17.3,30.2c-6.5,9.9-13.9,19.1-21.9,27.9
	c-8.4,9.2-17.5,17.3-28,23.9c-6.5,4.1-13.6,6.8-21.2,8.4c-7.5,1.6-14.7,1.2-21.8-1.1c-10-3.2-16.8-9.6-20.3-19.8
	c-2.3-6.7-3.8-13.5-3.6-20.6c0.1-3,0.1-6,0-9c-0.2-10.7,1.7-21.2,4.5-31.4c3.3-11.9,8.3-23.3,14.4-34.1c5.3-9.5,11.6-18.2,17.8-27
	c2.5-3.6,5.9-6.7,8.8-10c2-2.2,3.7-4.7,5.8-6.7c9.6-8.5,19.2-16.9,30.4-23.4c11.3-6.5,23.4-10.6,35.9-13.6c6.1-1.5,12.5-2.8,19-2.4
	c2.4,0.1,4.8,0.1,7.3-0.7c2.3-0.7,5.1-0.7,7.4-0.1c4.4,1.3,8.9,0.6,13.3,0.8c10.4,0.4,20.8,0.7,31.3,1.1c1,0,2,0.7,2.8,1
	c-2.7,11.5-5.2,22.5-7.8,33.6c-1.7,6.9-3.5,13.8-5.1,20.8c-1.1,4.6-1.9,9.2-2.8,13.8c-1.5,7.6-3.1,15.3-4.6,22.9
	c-1.2,6.2-2.2,12.5-3.4,18.7c-1.1,5.7-2.3,11.4-3.5,17.2c-1.2,5.7-2.3,11.5-3.4,17.2c-1.1,5.6-2.2,11.2-2.9,16.8
	c-0.4,3.1-0.4,6.4,0,9.5c0.5,4.9,3.1,7.1,8.2,7.5c6.3,0.5,11.9-1.7,17.2-4.9c8-5,15.3-10.8,21.8-17.7c3.8-4.1,7.9-8,11.8-11.9
	c0.9-0.9,1.9-1.7,2.8-2.6C1167.3,390.1,1167.6,390.2,1168,390.4z M1096.2,274.6c-5.4-2.8-10.7-4.7-16.2-6.2
	c-8-2.3-16.3-3.2-24.5-4.3c-3.1-0.4-6.2,0.3-9.3,0.7c-7.5,0.9-14.1,3.7-20.4,7.7c-5.3,3.3-9.4,7.6-13.3,12.4
	c-4.6,5.6-8,12-11.4,18.3c-2.6,4.9-4.7,10-6.8,15.2c-2.9,7.2-5.9,14.5-8.2,21.9c-2.2,7.3-3.4,14.9-5.4,22.2
	c-2.6,9.4-2.8,19.1-3.6,28.6c-0.3,3.7,0.5,7.5,0.9,11.3c0.5,5.8,2.7,10.8,6.8,14.9c0.9,0.9,2.2,1.4,3.3,1.8
	c5.2,2.1,10.4,1.2,15.2-1.2c7.2-3.5,13.3-8.5,19-13.9c7.9-7.3,15-15.4,21.9-23.6c6.8-8,13.2-16.4,19-25.1
	c6.3-9.5,12.5-19.2,18.6-28.9c2.2-3.6,4.4-7.3,6-11.2c1.2-3,1.5-6.3,2.1-9.5c1.7-8.6,3.3-17.2,5-25.8
	C1095.3,278.1,1095.8,276.4,1096.2,274.6z"/>
<path class="st0" d="M926.1,388.3c-0.5,2.8-1.2,5.6-1.4,8.4c-0.3,5.9-3.6,9.5-7.9,13.3c-6.7,5.9-13,12.2-20.1,17.7
	c-10.3,7.9-21.5,14.4-34.1,17.9c-7,2-14.3,2.2-21.4,0.3c-7.8-2-14.1-9.3-15.1-17.7c-0.4-3.4-1.1-6.9-0.9-10.3
	c0.2-4.7,1.5-9.4,1.7-14.1c0.4-9,3.2-17.6,4.3-26.5c0.8-6.7,2.7-13.4,4.1-20c1.2-5.9,2.5-11.7,3.7-17.6c1.1-5.6,2-11.2,3.1-16.8
	c1.2-6.2,2.7-12.4,3.9-18.6c1.1-5.2,2-10.5,3-15.8c1-4.8,2.1-9.5,2.9-14.3c2-11.5,4.6-22.9,8-34.1c3.9-13,8.9-25.6,15.2-37.5
	c4.5-8.6,9.5-16.8,15.9-24.2c3.9-4.5,7.4-9.3,11.6-13.5c16.4-16,35.5-27.2,58.1-32.1c4.3-0.9,8.7-1.3,13-2.1
	c5.5-1,10.9-0.8,16.3-0.8c5.1,0,10.2,0.4,15.3,1c4.8,0.5,9.6,1.4,15.3,2.2c-8.2,9.3-15.9,18.1-24.4,25.8c-5.4-1.8-10.5-3.3-15.5-5.1
	c-7.8-2.8-15.8-4.4-24.1-3.8c-13.6,1-26,5.3-35.2,16.1c-4.5,5.2-8,11.2-10.7,17.6c-2.7,6.5-5.4,12.9-7.3,19.6
	c-2.8,9.5-5.2,19.1-7.4,28.7c-2.3,10.1-4,20.4-6.1,30.6c-1.8,8.7-4.4,17.3-5.7,26.1c-1.3,9.4-3.6,18.5-5.3,27.8
	c-2.4,12.9-5.2,25.8-7.9,38.6c-1.7,8.3-3.7,16.5-4.9,24.9c-1.2,8.7-4.1,17.1-4.9,25.8c-0.4,4.7-2.2,9.5-0.5,14.6
	c1.2,3.5,3.3,5.6,6.2,6.3c2.7,0.6,5.7,0.6,8.8-0.6c8-3,14.6-8.1,21-13.4c9.6-8,19-16.3,28.5-24.5
	C925.4,388.3,925.8,388.3,926.1,388.3z"/>
<path class="st0" d="M1540.2,188.7c-3.4,20.4-7.8,39.8-10.6,60.2c7.6,0,14.7,0.1,21.8,0.1c7,0,14,0,21,0c7.1,0,14.2,0,22.6,0
	c-5.3,5.9-9.3,11.5-14.6,15.9c-1-0.3-1.9-0.8-2.8-0.9c-6.1-0.4-12.2-0.4-18.3-1.1c-9.1-1.1-18.2-0.9-27.3-0.9c-1,0-2,0-3,0
	c-1.8,0-2.7,0.7-3,2.5c-0.6,3.7-1.3,7.4-2,11c-1.4,7-2.8,14-4.2,21c-1.2,5.9-2.5,11.7-3.7,17.6c-1.6,7.8-3.3,15.6-4.8,23.4
	c-1.5,7.5-2.7,15-4.2,22.5c-1.4,7-3,14-4.5,21c-0.9,4.5-1.7,8.9-2.5,13.4c-0.7,4.2-1.4,8.3-1.9,12.5c-0.4,4,0,7.9,1.8,11.5
	c1.7,3.6,4.5,5.3,8.6,5.6c10.1,0.8,18.8-3,26.8-8.1c9.3-5.8,18-12.4,27.2-18.9c0.1,0.3,0.6,0.9,0.4,1.4c-0.9,4-2.2,7.8-2.8,11.8
	c-0.3,1.9-1.1,3-2.3,4.2c-8.4,8.1-17.5,15.4-27.6,21.4c-7.3,4.4-15.2,7.5-23.4,9.5c-8.5,2.1-17.1,2.3-25.7-0.4
	c-10.1-3.1-14.5-10.6-17-19.8c-1.9-7-1.3-14.2-0.9-21.2c0.3-5.3,1.8-10.5,2.7-15.8c1.1-6.6,2-13.2,3.2-19.8
	c0.9-5.1,2.2-10.1,3.2-15.2c1.2-5.9,2.5-11.8,3.7-17.6c1.6-7.6,3.1-15.3,4.6-22.9c1.2-6.2,2.2-12.5,3.4-18.7c1.4-7,3-14,4.4-21
	c0.7-3.5,1.3-7,2-11.1c-13.6,0-26.4,0-40.1,0c1-1.4,1.3-2.1,1.9-2.6c2.8-3.1,5.6-6.1,8.3-9.2c1.2-1.4,2.7-1.1,4.1-1.1
	c9.2,0,18.3,0,27.8,0c0.5-1.1,1.3-2.1,1.5-3.4c1.1-5.8,2-11.5,3.1-17.3c0.9-4.8,2-9.5,2.9-14.3c0.8-4.2,1.4-8.4,2.1-12.5
	c0.4-2.5,1.9-3.9,4.4-4.5c10.3-2.3,20.6-4.7,30.8-7.1C1538,189.7,1538.7,189.3,1540.2,188.7z"/>
<path class="st1" d="M1663.3,530.1c-4.1-2.5-4.9-2.5-7.8-0.2c-5.3,4.5-9,9.7-9.7,17c-0.5,5-2.1,9.8-3.2,14.7c-0.6,2.5-1.3,5-1.7,7.6
	c-0.3,2.1-1.4,2.8-3.4,2.7c-3.7-0.1-7.3,0-11.1,0c-0.9-2-0.6-3.8-0.1-5.8c2.5-10.7,5.1-21.4,7.5-32.2c0.5-2.1,0.1-4.3,0.1-6.5
	c0-2.6-2.4-2.2-3.9-3c0-1,0-2,0-2.8c0.3-0.2,0.4-0.5,0.5-0.5c5.7-0.4,11.5-0.8,17.2-1.1c0.7,0,1.3,0.8,2,1.2c-0.7,2.8-1.4,5.4-2,8
	c0.2,0.2,0.4,0.3,0.7,0.5c1.7-1.7,3.2-3.4,5-4.9c5.2-4.3,11-6.3,17.7-4c3.9,1.4,6.4,5.2,6.7,9.4c0.3,5.2-1.3,10-2.2,15
	c-0.9,4.9-2.5,9.7-3.7,14.6c-0.3,1.1,0,2.3-0.1,3.5c-0.1,2.1,0.6,3.4,2.9,3.7c1.5,0.2,2.3,1.3,2,2.9c-0.3,1.5-1.5,2-3,2
	c-5.5,0-11,0-16.5-0.1c-0.7,0-1.4-0.6-2.6-1.2c2.3-9.5,4.8-18.8,6.9-28.3C1662.7,538.3,1662.9,534,1663.3,530.1z"/>
<path class="st1" d="M661.1,524.7c-0.2-2.4,0.6-3.5,2.1-3.6c5.7-0.4,11.5-0.5,17.2-0.8c0.1,0,0.3,0.2,0.6,0.5
	c-0.7,2.8-1.4,5.7-2.3,9.5c3.5-2.8,6.1-5.5,9.2-7.4c4.3-2.5,8.9-3.9,14-1.9c4.4,1.7,7,5,7.1,9.5c0.1,6.6-2.2,12.8-3.3,19.2
	c-0.7,4-1.9,7.9-2.6,11.9c-0.6,3.2,0,4,3,5.6c0.8,0.5,1.8,1.6,1.8,2.5c0.2,1.5-1,2.3-2.6,2.3c-0.5,0-1,0-1.5,0c-4.7,0-9.3,0-14,0
	c-1.2,0-2.4-0.5-3.8-0.8c2.8-11.7,5.4-22.9,8-34c0.4-1.6,0.2-3.3,0.1-5c-0.2-3.5-2.8-5.1-5.7-3.1c-4,2.8-7.8,5.8-9.5,11
	c-2.2,6.5-3,13.3-4.8,19.8c-0.8,3-1.3,6-2,9c-0.7,3-0.7,3.1-3.9,3.2c-3.5,0-7,0-10.5,0c-1.8-3.3,0.2-6.3,0.7-9.1
	c1.8-9.2,4.4-18.2,6.5-27.4c0.6-2.5,0.3-5.3,0.2-7.9C664.9,525.1,662.8,525,661.1,524.7z"/>
<path class="st1" d="M594.3,527.5c-1.7-1.2-3.2-2.2-5.3-3.7c-0.4-1.3,0.3-2.7,2.4-2.8c5.7-0.4,11.4-0.7,17.7-1
	c-0.8,3.6-1.5,6.6-2.3,10.1c3.3-2.7,5.8-5.3,8.9-7.2c4.4-2.8,9.2-4,14.5-2c4,1.5,6.7,5.1,6.8,9.3c0.2,7.1-1.9,13.9-3.5,20.7
	c-0.8,3.5-1.8,6.9-2.5,10.4c-0.3,1.3-0.2,2.7,0.1,4c0.4,1.5,1.9,1.5,3.1,2c0.8,0.3,1.5,1.7,1.5,2.7c0,0.7-1.2,1.9-1.8,1.9
	c-6.3,0-12.6-0.2-18.9-0.4c-0.2,0-0.5-0.5-0.9-0.9c2.3-10.2,4.7-20.6,6.9-31c0.6-2.9,0.8-5.8,0.8-8.8c0-2.2-1.6-3.2-3.7-2.7
	c-0.9,0.2-2,0.5-2.7,1.2c-4.4,3.8-8.4,7.8-9.6,13.8c-1.8,8.7-4,17.4-5.9,26.1c-0.4,2-1.3,2.9-3.3,2.8c-2.8,0-5.7,0.1-8.5,0
	c-2.8-0.1-3.8-1.5-3.2-4.2c1.5-6,3.2-11.9,4.5-17.9c1.3-6,2.3-12.1,3.5-18.2C593.3,530.5,593.7,529.4,594.3,527.5z"/>
<path class="st1" d="M1109.5,520c1.5,3.7-1.2,6.5-1.3,10.1c2.7-2.2,4.8-4.4,7.2-6c2.4-1.6,5.1-2.9,7.9-3.8c4.2-1.3,8.2,0,11.6,2.3
	c1.4,0.9,2.7,2.8,2.8,4.4c0.4,3.4,0.5,7-0.2,10.4c-1.6,8.1-3.7,16.1-5.5,24.2c-0.7,3,1.1,4.5,3.6,5.7c0.7,0.3,1.4,1.8,1.2,2.4
	c-0.3,0.9-1.4,1.5-2.3,2.2c-0.2,0.2-0.7,0-1,0c-5.6,0-11.3,0-17,0c-1.8-3.6,0.1-7,0.7-10.2c1.4-7.5,3.8-14.8,5.4-22.2
	c0.6-2.9,0.4-5.9,0.4-8.9c-0.1-2.2-1.7-3.3-3.8-2.7c-1.4,0.4-2.7,1.2-3.8,2.1c-5.4,4.3-8.2,10.1-9.4,16.8c-1.3,7-2.6,14-4.1,21
	c-0.6,3-1.9,4-5.2,4c-2.7,0-5.3,0.1-8,0c-2.1-0.1-3-1.4-2.6-3.3c1.7-7.4,3.4-14.8,5.2-22.2c1.2-5.2,2.5-10.4,3.7-15.6
	c0.5-2.3-0.2-4.2-2.3-5.5c-0.9-0.6-1.8-1.2-3.2-2.2c1.3-0.9,2.2-1.9,3.1-2C1098.1,520.6,1103.6,520.4,1109.5,520z"/>
<path class="st1" d="M1842,521.2c-0.4,2.9-0.7,5.6-1.3,8.2c-2.2,9.2-4.6,18.2-6.6,27.4c-0.5,2.4-0.5,5,1.6,7c3,0.7,5.3-0.5,7.5-2.5
	c4.3-4.1,6.9-8.9,7.9-14.8c1.3-7.7,3.3-15.2,4.9-22.8c0.4-2.1,1.5-2.7,3.4-2.7c3.7,0.1,7.3,0,11.3,0c0.1,1.2,0.5,2.4,0.3,3.4
	c-1.5,7-3.1,13.9-4.7,20.9c-1.1,4.6-2.2,9.1-3.2,13.7c-0.3,1.4,0,3-0.1,4.5c-0.2,2.3,1.2,3.1,2.9,4c0.6,0.3,1.2,1.8,1,2.5
	c-0.2,0.8-1.3,1.8-2,1.8c-5.5,0.1-10.9-0.1-16.4-0.2c-0.4,0-0.7-0.6-1.3-1.1c0.7-2.3,1.4-4.7,2.3-7.9c-3.3,2.6-5.7,4.8-8.4,6.7
	c-4.3,3-9.4,3.3-14.2,2.4c-5.3-1-8.9-7.6-7.6-13.1c1.9-8.5,4-17,5.8-25.6c0.4-2.1,0.1-4.3,0.1-6.5c-1.3-0.8-2.6-1.5-3.8-2.2
	c0-1,0-2,0-3.2C1828,521.2,1834.6,521.2,1842,521.2z"/>
<path class="st1" d="M1478.3,521.1c5,0,9.4,0,14.2,0c1.2,3.2-0.5,6-1.1,8.9c-2.2,11-4.9,21.8-7.2,32.7c-0.4,1.9,0,4,2.7,4.4
	c1.5,0.2,2.4,1.3,2,2.9c-0.3,1.5-1.4,2-3,2c-4.8,0-9.7,0-14.5-0.1c-0.7,0-1.4-0.6-2.3-1c0.7-2.9,1.3-5.7,2-8.4
	c-0.2-0.1-0.4-0.3-0.7-0.4c-1.6,1.6-3.2,3.1-4.8,4.8c-3.4,3.8-7.7,5.4-12.8,5.2c-0.2,0-0.3,0-0.5,0c-9,1.4-12.7-7.2-11.2-14.4
	c1.8-8.9,3.9-17.7,5.7-26.6c0.8-3.5-0.2-4.8-4.8-6.7c-0.3-2,0.5-3.3,2.6-3.3c6.3-0.1,12.6,0,19.5,0c-1,4.4-1.9,8.3-2.8,12.1
	c-1.8,7.7-3.6,15.5-5.3,23.2c-0.2,1.1-0.1,2.3-0.1,3.5c0.1,4,2.1,5.4,5.8,3.8c3.2-1.4,5.4-4.1,7.4-7c2.8-4.2,3.5-9.1,4.7-13.8
	C1475.7,535.8,1476.8,528.5,1478.3,521.1z"/>
<path class="st1" d="M1741.1,523.2c2.8-3,5.9-4,9.8-1.5c-1.3,6.2-2.7,12.5-4.1,18.8c-1.3,6-2.6,12-3.9,18.1
	c-0.2,1.1-0.7,2.2-0.9,3.3c-0.5,2.5,0.3,4,2.9,5.3c1.4,0.7,2.3,1.5,1.9,3c-0.4,1.5-1.5,1.9-3.1,1.9c-5.5,0-10.9,0-16.8,0
	c0.4-2.9,0.7-5.3,1.1-8.2c-2.8,0.7-3.8,2.5-5.2,3.8c-5.2,4.9-13.5,6.1-19.6,2.4c-1-0.6-1.9-1.7-2.6-2.7c-3.8-5.5-3.1-11.8-2.6-17.8
	c0.5-6.2,3-12,6.3-17.3c3.7-6,9.3-9.6,16.1-11.2C1728.3,519.2,1729.3,519.3,1741.1,523.2z M1712,554.5c0,2.1-0.1,3.1,0,4.1
	c0.9,5.4,2.4,6.3,7.7,5c1.2-0.3,2.3-1.3,3.2-2.1c3.2-2.9,5.7-6.5,6.9-10.6c1.7-5.9,3-11.9,4-18c0.8-5-4.1-8.5-8.7-6.3
	c-2.3,1.1-4.6,2.9-5.9,5.1C1714.8,538.9,1712.6,547,1712,554.5z M1728.5,562.8c0.1-0.1,0.3-0.2,0.3-0.3s-0.2-0.2-0.3-0.4
	c-0.1,0.1-0.3,0.2-0.3,0.3C1728.2,562.6,1728.4,562.7,1728.5,562.8z"/>
<path class="st1" d="M905.1,519.9c1.7,0.5,3.2,1,5.2,1.7c-0.8,4.3-1.5,8.6-2.5,12.8c-1.8,7.9-3.9,15.7-5.7,23.6
	c-0.4,1.9-0.1,4-0.1,6c0,1.8,0.7,2.7,2.5,3.1c0.9,0.2,1.7,0.8,2.7,1.4c-1,2.1-2,3.5-4.4,3.5c-4.7-0.1-9.3,0-14-0.1
	c-0.9,0-1.7-0.7-2.6-1c0.7-3,1.4-5.7,2.2-9c-2.2,2.3-3.7,4-5.4,5.6c-4.8,4.6-10.9,5.7-17,4.4c-4.7-1-7-5.2-8-9.7
	c-2.5-11,0.5-21.3,6.3-30.3c6.7-10.5,20.4-14.7,32.1-9.9c2.8,1.2,4.9,1.1,7.1-0.9C904,520.6,904.5,520.3,905.1,519.9z M893,533.6
	c0-0.8,0-1.7,0-2.5c-0.1-3.8-1.4-5-5-5.2c-4.1-0.3-6.9,1.7-9,5c-5.2,8-6.8,17.1-7.9,26.3c-0.2,1.7,0.5,3.5,1.1,5.2
	c0.7,1.8,3,2.5,5.3,1.8c4.6-1.3,7.2-5,9.6-8.7C891.3,548.8,892.3,541.2,893,533.6z"/>
<path class="st1" d="M1068,540.2c0.8,7.3-2.2,14.6-6.3,21.1c-4,6.4-10.5,10-18.1,10.6c-5.4,0.5-10.8,0.6-16-1.9
	c-4-1.9-6.2-5.2-7.4-8.8c-1.1-3.8-2.4-7.9-0.4-12c0.7-1.4,0.2-3.3,0.5-4.9c1.1-5.4,3.8-10,6.7-14.6c3-4.7,8.1-7,13-8.4
	c4.9-1.4,10.2-1.8,15.5-0.4c6.1,1.6,12.3,6.5,12.3,15.1C1068,537.1,1068,538.3,1068,540.2z M1054,536.5c0-1.7,0.1-3.3-0.1-5
	c-0.1-1.1-0.5-2.2-1.1-3.1c-2.2-3.4-6.2-3.2-9.7-1c-2.5,1.6-3.6,4.2-4.8,6.8c-3.1,6.6-4.2,13.6-5.3,20.7c-0.4,2.5,0.2,5.3,0.9,7.7
	c1.2,4,5.7,5.7,9.1,3.3c2-1.4,3.8-3.3,4.9-5.4C1052.2,553.1,1053.9,545,1054,536.5z"/>
<path class="st1" d="M748.7,572.4c-2.9-0.5-5.8-0.7-8.7-1.5c-7.4-2.1-10.5-7.9-10.9-14.8c-0.6-11,2.2-21.1,10.3-29.1
	c3.4-3.4,7.6-5.4,12.5-6.2c4.6-0.8,9-1.2,13.5,0c6.8,1.8,11.8,7.1,12.4,14c0.7,7.7-0.6,15.1-4,21.9
	C768.8,567.1,760.6,572.7,748.7,572.4z M764,536.7c0-1.2,0-2.3,0-3.5c0.1-3.1-0.9-6-3.8-6.9c-2.7-0.9-5.7-0.8-8.1,1.9
	c-2.2,2.5-4.2,5.1-5.1,8.3c-1,3.4-2.3,6.8-2.9,10.3c-0.7,4.2-1,8.5-1.1,12.7c-0.1,3,2.6,7.2,4.8,7.4c2.8,0.3,5.6-0.5,7.5-2.8
	c1.5-1.9,3.2-3.9,4-6.1C762,551.1,764,544.1,764,536.7z"/>
<path class="st1" d="M1391.5,572.3c-2.6-0.3-5.3-0.4-7.8-1.1c-7.6-2.2-11.5-7.8-11.8-15.6c-0.3-7.6,1.2-14.6,4.9-21.3
	c3.4-6.2,8-10.6,14.9-12.8c6.5-2,12.7-2.1,19.2,0.3c4.1,1.5,6.5,4.2,8.3,8.2c2.8,6.2,2,12.3,0.5,18.3c-1.7,6.5-4.4,12.5-9.7,17.3
	c-4.5,4.1-9.6,6-15.5,6.3c-1,0-2,0-3,0C1391.5,572.1,1391.5,572.2,1391.5,572.3z M1386,555.8c0,1.8-0.2,3.7,0,5.5
	c0.3,3.5,3.7,6.5,6.7,5.7c2.8-0.8,5.7-1.9,7.2-4.7c1.2-2.3,2.3-4.7,3.1-7.2c1.5-5.1,3-10.3,3.8-15.5c0.5-3.2,0.6-6.5-0.8-9.8
	c-1.5-3.6-6.2-5.4-9.2-2.9c-2.2,1.9-4.5,4.2-5.6,6.8C1388.2,540.6,1385.6,547.8,1386,555.8z"/>
<path class="st1" d="M1989.1,561.1c-8.1,9.4-18.3,12.3-29.7,10.6c-5.3-0.8-9.7-4-11.7-10c-2.9-8.9-0.5-16.9,2.8-24.9
	c3.3-7.9,9.2-13,17.4-15.3c6.6-1.8,13.1-2.3,19.7,0.3c4.6,1.8,6.1,5.6,6.1,9.7c-0.1,5.4-2.2,10.1-7.6,12.8
	c-3.7,1.9-7.6,2.9-11.6,3.6c-3.4,0.6-6.8,0.8-10.3,1c-2.7,0.2-3.3,0.7-3.4,3.2c-0.1,2-0.2,4,0,6c0.3,3.8,2.7,5.6,6.5,5.9
	c5.3,0.5,9.7-1.4,13.6-4.7c3.8-3.2,3.7-3.2,7.1,0.3C1988.5,560,1988.7,560.5,1989.1,561.1z M1962.6,544.3c5.1-0.8,9.3-1.4,12.9-3.6
	c3.8-2.3,6.3-5.8,5.6-10.7c-0.3-2.4-1.7-3.8-4.1-4c-2.2-0.2-4.3,0.2-6,1.7C1966.1,531.8,1964,537.2,1962.6,544.3z"/>
<path class="st2" d="M1253.8,569.9c0.9-3.9,1.8-6.9,2.1-10c0.3-2.4,1.5-3.1,3.7-3c1.3,0,2.6,0,3.8,0c0.6,1.9,0.9,3.5,1.6,4.9
	c1.9,3.9,8.5,5.7,12,3.6c4.3-2.7,4.3-9.4,0-12.5c-3.7-2.7-7.7-5-10.9-8.4c-6.8-6.8-3.6-18.3,3.7-21.5c6.7-3,13.4-3.9,20.6-2.4
	c3,0.6,6.1,1,9.3,1.5c1.2,4.4-1,8.3-1.9,12.6c-1.1,0.1-2.2,0.2-3.3,0.2c-3.3,0-3.3,0-4.3-3.7c-0.9-3.4-2.9-5-6.3-5.3
	c-3.7-0.2-6.1,0.9-7.1,3.9c-0.4,1.2-0.6,3.1,0,4.1c1.4,2.2,3.2,4.2,5.1,5.9c2.1,1.8,4.8,2.8,6.9,4.5c3.4,2.7,5.4,6.1,5.3,10.6
	c0,4,0,7.8-3.4,10.9c-3.8,3.5-8,5.8-13.1,6c-4.5,0.2-9,0.3-13.5-0.1C1260.7,571.7,1257.4,570.7,1253.8,569.9z"/>
<path class="st2" d="M843.2,521c1.7,2,2.2,3.7,0.9,6c-3,5.6-5.4,11.6-8.7,16.9c-5.3,8.5-11.1,16.6-16.7,24.8
	c-1.6,2.3-3.5,3.9-6.6,3.4c-2.1-0.3-4.3-0.1-6.6-0.1c-0.5-4.3-0.9-8.3-1.4-12.3c-0.6-4.5-1.3-9-1.9-13.5c-0.5-3.6-0.6-7.2-1.1-10.8
	c-0.6-3.9-0.2-8.3-4.5-10.8c-0.6-0.3-0.4-2-0.6-3.6c5.7,0,11,0,16.3,0c1.8,0,2.7,1,2.8,2.8c0.3,5.2,0.7,10.5,1,15.8
	c0.3,4.6,0.6,9.2,1.1,13.8c0.1,1.2,0.8,2.3,1.5,4c3.2-5.4,6.2-10.2,8.9-15.3c1.7-3.1,2.8-6.6,4-9.9c1.6-4.7,1-6-3.3-8
	c-0.1-2.4,1.1-3.2,3.3-3.2C835.2,521,839,521,843.2,521z"/>
<path class="st2" d="M1777,528c-2.2,0-3.8,0-5.4,0c-0.7-3.4-0.3-4.6,2.1-4.8c4.5-0.3,6.1-3.3,7.2-6.9c0.9-2.6,1.9-5.1,2.9-7.7
	c2.9-0.2,5.9-0.4,8.8-0.6c0.8,0,1.7,0,2.7,0c1,4.3-1.8,8.2-1.4,12.8c3.4,0,6.8,0,10.6,0c0.1,1.5,0.4,2.6,0.3,3.7
	c-0.1,3-0.6,3.4-3.5,3.5c-2.8,0.1-5.7,0-8.7,0c-2.2,2.2-2.1,5.3-2.8,8c-1.7,6.4-3.3,12.9-4.7,19.4c-0.4,1.9-0.3,3.9-0.3,5.9
	c0,1.8,1,2.6,2.8,2.8c2.3,0.2,4.2-0.7,5.8-2.2c1.3-1.2,2.5-2.7,4.1-4.5c1.7,1.6,3.1,3,4.6,4.4c-3.7,4.4-7.5,8.3-13.1,9.4
	c-3.7,0.7-7.6,1-11.3,0.6c-4.5-0.6-7.6-5.2-7.9-9.9c-0.4-5.2,1.5-10,2.2-15C1773.2,540.7,1775.3,534.7,1777,528z"/>
<path class="st2" d="M935.9,528.1c-2,0-3.6,0-5.5,0c-0.1-1.3-0.3-2.3-0.4-3.8c9.8-0.9,11.2-8.7,13.4-16c4.2,0,8.2,0,12.8,0
	c-1,4.2-2,8.1-3,12.3c3.6,1.1,7.4,0.1,11.3,0.6c1.8,2.5-0.7,4.4-0.8,6.9c-4.2,0-8.2,0-12.1,0c-2.2,8.7-4.3,17.2-6.4,25.6
	c-0.4,1.7-1,3.5-1,5.2c0,1.7,0.7,3.4,1,4.7c4.2,1.5,6.9-0.6,9.5-2.7c3.3-2.6,3.3-2.6,6.7,1.5c-2.6,2.2-5.1,4.5-7.7,6.6
	c-4.8,3.9-10.6,2.9-16.2,2.9c-0.6,0-1.2-0.5-1.8-0.8c-4.8-2.3-6.8-7.3-5.9-12.6c1.5-9.6,4.2-19,6.3-28.5
	C936.1,529.7,936,529.1,935.9,528.1z"/>
<path class="st2" d="M1524.3,572.1c-4.7-0.6-9.6,0.8-14.2-1c3-15.1,7.6-29.3,9.2-44.1c-1.6-1.1-3-1.9-4.2-3c-0.4-0.4-0.1-1.6-0.1-3
	c2.4,0,4.7,0.1,7,0c2.1-0.2,4.2-0.9,6.3-0.8c2.2,0,4.7-1.1,6.5,1.4c-0.6,2.4-1.3,4.7-1.9,7.1c7.5-6.4,14.9-11,25-7.2
	c-0.7,4-1.2,7.8-2,11.6c-0.2,0.8-1.2,1.8-2,1.9c-2.1,0.3-4.3,0.2-6.5,0.1c-1.6-0.1-2.1-1.2-2.4-2.7c-0.8-3.7-1.9-4.2-5-2.3
	c-4,2.6-6.9,6.2-8,10.8c-2.2,9.3-4.1,18.7-6.1,28C1525.7,570,1524.9,570.9,1524.3,572.1z M1532.8,530.5c-0.1-0.1-0.2-0.2-0.3-0.4
	c-0.1,0.1-0.3,0.2-0.3,0.3c0,0.1,0.2,0.2,0.3,0.3C1532.6,530.7,1532.7,530.6,1532.8,530.5z"/>
<path class="st1" d="M1912.4,519.9c1.9,3.8-2.4,5.9-0.8,9.4c4-2.6,6.4-7,11.1-8.3c4.4-1.2,8.6-1.7,13.4,0.6
	c-0.7,3.8-1.3,7.8-2.3,11.6c-0.2,0.8-1.7,1.5-2.7,1.7c-2.1,0.2-4.3,0.1-6.7,0.1c-0.2-0.9-0.2-1.7-0.4-2.4c-1-3.6-3.2-4.6-6.2-2.5
	c-3.9,2.7-6.2,6.8-7.7,11.2c-1.4,4.3-2.1,8.8-3.1,13.2c-1.1,5.1-2,10.2-3.1,15.3c-0.4,1.8-1.7,2.2-3.4,2.2c-3.7-0.1-7.3,0-11.4,0
	c0-1.9-0.3-3.7,0.1-5.4c2.5-11.2,5.1-22.4,7.7-33.6c0.2-1,0.1-2,0.1-3c0-4,0-4-3.8-5.6c0-1,0-1.9,0-3
	C1899.7,520.8,1906.1,520.4,1912.4,519.9z"/>
<path class="st1" d="M1237.2,568.5c-1.3,2.5-2.6,3.6-5,3.5c-4.5-0.2-9,0-13.5-0.1c-3.3,0-4.3-1.3-3.6-4.3c2.2-9.1,4.6-18.2,6.7-27.4
	c0.9-4,1.3-8,2-12.6c-0.5-1.7-2.4-2.6-4.5-3c-0.8-1.9,0.1-3.4,1.6-3.5c6.2-0.5,12.4-0.7,18.9-1c0,2,0.3,3.7-0.1,5.2
	c-1.5,7.3-3.2,14.6-4.8,21.8c-0.9,3.8-1.9,7.5-2.7,11.3c-0.4,1.8-0.2,3.6-0.3,5.5c-0.1,1.8,0.7,2.7,2.5,3.1
	C1235.3,567.3,1236.1,567.9,1237.2,568.5z"/>
<path class="st1" d="M542.1,570.9c1.7-7.6,3.3-14.7,4.9-21.8c1.2-5.4,2.4-10.8,3.5-16.2c0.2-1,0.4-1.9,0.5-2.9
	c0.2-4.1,0.1-4.1-3.9-5.7c0-0.9,0-1.9,0-2.7c0.4-0.2,0.7-0.5,1-0.6c5.2-0.4,10.5-0.7,15.8-1c1.5-0.1,3-0.2,3.9,1.5
	c-1.6,7.9-3.1,15.9-4.8,23.8c-1,4.9-2.3,9.8-3.4,14.7c-0.2,1-0.4,1.9-0.5,2.9c-0.2,2.1,0,4,2.8,4.3c1.5,0.2,2.4,1.3,2,2.8
	c-0.3,1.5-1.4,2-3,2c-5.5,0-11,0-16.5-0.1C543.8,571.9,543,571.3,542.1,570.9z"/>
<path class="st1" d="M976.2,570.6c2-8.7,3.9-17.3,5.8-25.8c0.9-4.1,1.9-8.2,2.8-12.3c0.2-0.8,0.2-1.6,0.2-2.5
	c0.1-4.1,0.1-4.1-3.9-5.7c0-0.9,0-1.9,0-2.7c0.4-0.3,0.7-0.5,1-0.6c5.2-0.4,10.5-0.7,15.8-1c1.5-0.1,3-0.2,4,1.5
	c-1.6,7.8-3.2,15.8-4.8,23.7c-1,4.9-2.3,9.8-3.4,14.7c-0.1,0.5-0.5,0.9-0.5,1.4c0,1.3-0.2,2.7,0.1,4c0.4,1.5,1.8,1.5,3.1,2
	c0.8,0.3,1.6,1.8,1.5,2.7c-0.1,0.8-1.5,2-2.3,2c-5.8,0.2-11.7,0.1-17.5,0C977.3,571.9,976.7,571,976.2,570.6z"/>
<path class="st2" d="M1244.3,501c-0.9,4.2-1.6,7.9-2.6,11.4c-0.2,0.7-1.4,1.5-2.2,1.5c-3.8,0.2-7.5,0.1-11.6,0.1
	c0.8-4,1.4-7.5,2.2-10.9c0.3-1.5,1.4-2.1,2.9-2.1C1236.5,501,1239.9,501,1244.3,501z"/>
<path class="st2" d="M571.9,501.1c-1.1,4.5-2.1,8.6-3,12.7c-4.3,0-8.3,0-12.6,0c-0.8-4.5,1.3-8.5,2-12.7
	C562.9,501.1,567.2,501.1,571.9,501.1z"/>
<path class="st2" d="M990.1,513.8c-0.3-4.6,1.4-8.5,2.1-12.5c4.7,0,9.1,0,13.7,0c-1,4.3-2,8.4-3,12.5
	C998.6,513.8,994.7,513.8,990.1,513.8z"/>
<path class="st3" d="M1712,554.5c0.6-7.5,2.8-15.6,7.3-23c1.3-2.1,3.6-4,5.9-5.1c4.6-2.2,9.5,1.3,8.7,6.3c-0.9,6.1-2.3,12.1-4,18
	c-1.2,4.1-3.7,7.7-6.9,10.6c-1,0.9-2.1,1.8-3.2,2.1c-5.4,1.3-6.9,0.4-7.7-5C1711.9,557.6,1712,556.6,1712,554.5z"/>
<path class="st3" d="M893,533.6c-0.7,7.6-1.7,15.2-5.9,21.9c-2.3,3.7-5,7.4-9.6,8.7c-2.2,0.7-4.6,0-5.3-1.8
	c-0.6-1.6-1.3-3.5-1.1-5.2c1.2-9.2,2.7-18.3,7.9-26.3c2.1-3.2,4.9-5.2,9-5c3.6,0.2,4.9,1.4,5,5.2C893,532,893,532.8,893,533.6z"/>
<path class="st3" d="M1054,536.5c-0.1,8.5-1.8,16.5-5.9,24c-1.2,2.1-3,4-4.9,5.4c-3.4,2.3-7.9,0.7-9.1-3.3c-0.7-2.5-1.3-5.2-0.9-7.7
	c1-7,2.2-14.1,5.3-20.7c1.2-2.5,2.4-5.2,4.8-6.8c3.4-2.2,7.5-2.3,9.7,1c0.6,0.9,1,2,1.1,3.1C1054.1,533.2,1054,534.9,1054,536.5z"/>
<path class="st3" d="M764,536.7c0,7.4-2,14.5-4.6,21.3c-0.8,2.2-2.5,4.2-4,6.1c-1.9,2.3-4.7,3.1-7.5,2.8c-2.2-0.2-4.9-4.5-4.8-7.4
	c0.2-4.2,0.4-8.5,1.1-12.7c0.6-3.5,1.8-6.9,2.9-10.3c1-3.2,2.9-5.8,5.1-8.3c2.4-2.8,5.4-2.8,8.1-1.9c2.8,0.9,3.8,3.8,3.8,6.9
	C764,534.3,764,535.5,764,536.7z"/>
<path class="st3" d="M1386,555.8c-0.4-7.9,2.2-15.1,5.3-22.2c1.1-2.6,3.4-4.9,5.6-6.8c3-2.5,7.7-0.7,9.2,2.9
	c1.3,3.2,1.3,6.6,0.8,9.8c-0.8,5.2-2.4,10.4-3.8,15.5c-0.7,2.5-1.9,4.9-3.1,7.2c-1.5,2.9-4.4,4-7.2,4.7c-3,0.8-6.3-2.1-6.7-5.7
	C1385.9,559.4,1386,557.6,1386,555.8z"/>
<path class="st4" d="M1962.6,544.3c1.4-7,3.5-12.5,8.3-16.6c1.7-1.4,3.8-1.9,6-1.7c2.4,0.2,3.8,1.7,4.1,4c0.7,4.9-1.8,8.4-5.6,10.7
	C1971.9,542.9,1967.7,543.5,1962.6,544.3z"/>
</svg>
