<?xml version="1.0" encoding="UTF-8"?>
<!DOCTYPE svg PUBLIC "-//W3C//DTD SVG 1.1//EN" "http://www.w3.org/Graphics/SVG/1.1/DTD/svg11.dtd">
<!-- Creator: CorelDRAW 2021 (64 Bit) -->
<svg xmlns="http://www.w3.org/2000/svg" xml:space="preserve" width="65.364mm" height="81.718mm" version="1.1" style="shape-rendering:geometricPrecision; text-rendering:geometricPrecision; image-rendering:optimizeQuality; fill-rule:evenodd; clip-rule:evenodd"
viewBox="0 0 6526.81 8159.82"
 xmlns:xlink="http://www.w3.org/1999/xlink"
 xmlns:xodm="http://www.corel.com/coreldraw/odm/2003">
 <defs>
  <style type="text/css">
   <![CDATA[
    .fil0 {fill:#C4C4C4;fill-rule:nonzero}
   ]]>
  </style>
 </defs>
 <g id="Camada_x0020_1">
  <metadata id="CorelCorpID_0Corel-Layer"/>
  <g id="_3009519093216">
   <path class="fil0" d="M-0 7001.92c14.28,1.3 23.37,-1.3 27.26,-19.47 14.28,-61.01 48.03,-111.64 90.87,-158.37 55.82,-61.01 128.51,-89.57 201.2,-120.72 40.24,-16.88 81.78,-32.45 133.7,-54.52 -31.15,-28.56 -53.22,-48.03 -75.29,-67.5 -98.66,-88.27 -153.18,-202.5 -180.43,-329.72 -19.47,-89.57 -15.58,-180.43 7.79,-271.3 10.38,-40.24 14.28,-83.08 24.66,-124.62 15.58,-64.9 58.41,-116.83 81.78,-179.14 -11.68,-25.96 -25.96,-49.33 -54.52,-66.2 -62.31,-38.94 -81.78,-107.74 -98.66,-173.94 -5.19,-22.07 9.09,-54.52 22.07,-76.59 25.96,-44.14 57.12,-83.08 84.38,-123.32 115.53,35.05 142.79,122.02 149.28,223.27 2.6,37.64 9.09,75.29 14.28,118.13 40.24,-10.38 73.99,-14.28 103.85,-25.96 73.99,-27.26 149.28,-35.05 225.87,-31.15 147.98,7.79 247.94,145.39 199.91,279.09 -7.79,23.37 -16.88,45.43 -38.94,66.2 0,-33.75 -1.3,-66.2 0,-99.95 2.6,-106.44 -83.08,-179.14 -180.43,-181.73 -68.8,-1.3 -136.3,1.3 -201.2,25.96 -105.15,37.64 -176.54,110.34 -214.19,212.89 -24.66,66.2 -37.64,137.6 -55.82,205.1 31.15,24.66 54.52,7.79 75.29,-5.19 31.15,-19.47 62.31,-25.96 98.66,-23.37 57.12,5.19 115.53,7.79 172.65,14.28 15.58,1.3 31.15,11.68 48.03,18.17 -2.6,44.14 -35.05,64.9 -64.9,84.38 -44.14,27.26 -93.46,40.24 -145.39,40.24 -58.41,0 -115.53,0 -175.24,0 -18.17,59.71 7.79,109.04 28.56,155.77 46.73,101.25 112.93,192.12 199.91,264.81 75.29,62.31 155.77,118.13 238.85,168.75 58.41,36.35 119.42,61.01 185.63,89.57 10.38,-73.99 -1.3,-145.39 15.58,-214.19 18.17,-70.1 66.2,-122.02 97.36,-185.63 27.26,-15.58 51.92,0 70.1,14.28 63.61,51.92 105.15,116.83 106.44,202.5 1.3,75.29 -7.79,149.28 -24.66,221.97 -2.6,11.68 0,25.96 0,46.73 29.86,7.79 61.01,19.47 93.46,24.66 110.34,18.17 219.38,27.26 331.01,7.79 58.41,-9.09 116.83,-16.88 175.24,-27.26 103.85,-18.17 199.91,-50.63 293.37,-97.36 29.86,-15.58 59.71,-31.15 98.66,-51.92 -124.62,-45.43 -238.85,-86.97 -319.33,-193.42 -77.89,-102.55 -109.04,-216.78 -131.11,-337.5 63.61,-14.28 202.5,-6.49 271.3,1.3 54.52,6.49 102.55,25.96 149.28,51.92 66.2,36.35 97.36,98.66 133.7,159.67 23.37,38.94 45.43,76.59 70.1,112.93 33.75,48.03 50.63,51.92 96.06,18.17 40.24,-28.56 76.59,-61.01 115.53,-90.87 72.69,-57.12 132.41,-128.51 194.71,-196.01 85.67,-93.46 168.75,-188.22 247.94,-286.88 45.43,-55.82 79.18,-120.72 118.13,-181.73 5.19,-7.79 6.49,-19.47 9.09,-29.86 -40.24,-11.68 -145.39,-14.28 -179.14,-6.49 -7.79,2.6 -15.58,6.49 -24.66,7.79 -144.09,18.17 -288.18,20.77 -432.27,11.68 -112.93,-7.79 -224.57,-35.05 -334.91,-66.2 -142.79,-40.24 -280.39,-94.76 -412.79,-162.26 -162.26,-84.38 -315.44,-181.73 -434.86,-321.93 -62.31,-72.69 -118.13,-150.58 -170.05,-231.06 -44.14,-67.5 -79.18,-141.49 -116.83,-212.89 -49.33,-93.46 -77.89,-196.01 -103.85,-298.56 -19.47,-77.89 -35.05,-155.77 -50.63,-234.95 -2.6,-14.28 -1.3,-29.86 -1.3,-45.43 0,-61.01 1.3,-120.72 -1.3,-181.73 -3.89,-167.45 32.45,-328.42 83.08,-486.79 41.54,-127.21 94.76,-249.23 158.37,-367.36 66.2,-122.02 138.9,-238.85 234.95,-340.1 31.15,-32.45 57.12,-70.1 89.57,-101.25 162.26,-154.47 347.89,-270 558.18,-351.78 115.53,-44.14 233.66,-70.1 351.78,-99.95 46.73,-11.68 97.36,-11.68 145.39,-15.58 49.33,-3.89 98.66,-14.28 146.68,-11.68 155.77,10.38 312.84,23.37 462.12,76.59 118.13,41.54 232.36,90.87 338.8,159.67 103.85,66.2 197.31,142.79 280.39,232.36 59.71,63.61 106.44,137.6 151.88,212.89 62.31,99.95 102.55,208.99 132.41,321.93 18.17,66.2 35.05,135 33.75,206.4 -1.3,49.33 11.68,97.36 10.38,146.68 -5.19,194.71 -38.94,381.64 -118.13,562.07 -38.94,90.87 -85.67,176.54 -144.09,254.43 -68.8,92.16 -150.58,173.94 -245.34,244.04 -153.18,112.93 -327.12,172.65 -508.85,219.38 -133.7,35.05 -270,33.75 -402.41,22.07 -163.56,-15.58 -316.73,-73.99 -450.44,-173.94 -141.49,-105.15 -244.04,-241.45 -311.54,-405.01 -25.96,-63.61 -53.22,-127.21 -58.41,-192.12 -6.49,-79.18 -36.35,-158.37 -6.49,-241.45 11.68,-32.45 9.09,-71.4 14.28,-106.44 20.77,-129.81 80.48,-244.04 155.77,-350.49 76.59,-109.04 180.43,-189.52 295.97,-250.53 63.61,-32.45 133.7,-50.63 206.4,-54.52 106.44,-5.19 208.99,9.09 305.05,54.52 180.43,85.67 289.47,229.76 334.91,424.48 40.24,175.24 -6.49,329.72 -119.42,463.42 -59.71,71.4 -141.49,114.23 -232.36,137.6 -67.5,16.88 -133.7,20.77 -198.61,-10.38 -84.38,-40.24 -132.41,-103.85 -153.18,-198.61 -20.77,-96.06 3.89,-185.63 18.17,-276.49 1.3,-6.49 10.38,-12.98 16.88,-20.77 20.77,27.26 38.94,53.22 58.41,77.89 48.03,64.9 109.04,99.95 192.12,92.16 24.66,-2.6 44.14,-14.28 50.63,-33.75 32.45,-101.25 48.03,-201.2 -1.3,-303.75 -29.86,-62.31 -85.67,-93.46 -145.39,-103.85 -105.15,-16.88 -201.2,16.88 -284.28,86.97 -88.27,73.99 -132.41,171.35 -162.26,276.49 -51.92,185.63 -36.35,362.17 75.29,524.43 71.4,103.85 168.75,175.24 282.98,224.57 131.11,57.12 271.3,67.5 408.9,50.63 150.58,-19.47 289.47,-75.29 412.79,-168.75 112.93,-85.67 206.4,-189.52 268.71,-314.14 49.33,-97.36 89.57,-198.61 111.64,-308.95 19.47,-96.06 23.37,-190.82 23.37,-286.88 0,-164.86 -55.82,-310.24 -141.49,-449.14 -96.06,-153.18 -229.76,-263.51 -385.53,-347.89 -101.25,-54.52 -211.59,-97.36 -325.82,-119.42 -48.03,-9.09 -98.66,-5.19 -145.39,-16.88 -62.31,-15.58 -123.32,-10.38 -185.63,-11.68 -89.57,-1.3 -176.54,19.47 -264.81,33.75 -114.23,19.47 -219.38,64.9 -321.93,112.93 -97.36,46.73 -185.63,110.34 -268.71,181.73 -179.14,150.58 -298.56,342.7 -393.32,551.69 -50.63,111.64 -81.78,231.06 -98.66,351.78 -10.38,77.89 -24.66,155.77 -24.66,233.66 0,124.62 20.77,249.23 53.22,369.96 49.33,184.33 136.3,351.78 253.13,501.06 111.64,142.79 250.53,254.43 405.01,350.49 151.88,93.46 319.33,145.39 488.08,189.52 44.14,11.68 93.46,9.09 138.9,16.88 79.18,14.28 158.37,16.88 237.55,10.38 135,-10.38 270,-24.66 401.11,-62.31 140.19,-40.24 277.79,-88.27 408.9,-151.88 98.66,-49.33 194.71,-105.15 284.28,-168.75 98.66,-68.8 192.12,-144.09 273.9,-232.36 157.07,-168.75 281.69,-358.27 343.99,-581.55 31.15,-109.04 58.41,-219.38 72.69,-333.61 29.86,-220.68 27.26,-441.35 20.77,-663.33 -2.6,-83.08 -1.3,-167.45 -11.68,-250.53 -7.79,-66.2 -2.6,-133.7 -12.98,-198.61 -11.68,-72.69 -2.6,-146.68 -12.98,-218.08 -14.28,-101.25 -1.3,-202.5 -14.28,-302.46 -11.68,-92.16 -9.09,-184.33 -9.09,-276.49 0,-107.74 6.49,-214.19 12.98,-321.93 6.49,-93.46 12.98,-186.93 25.96,-280.39 18.17,-136.3 37.64,-272.6 66.2,-406.3 28.56,-133.7 59.71,-267.41 103.85,-397.22 64.9,-194.71 147.98,-382.94 253.13,-560.78 19.47,-33.75 46.73,-67.5 44.14,-111.64 25.96,0 51.92,0 77.89,0 2.6,2.6 6.49,6.49 9.09,9.09 1.3,-2.6 2.6,-6.49 3.89,-9.09 9.09,0 16.88,0 25.96,0 3.89,7.79 6.49,20.77 12.98,24.66 45.43,23.37 92.16,42.84 137.6,66.2 33.75,16.88 40.24,27.26 25.96,59.71 -20.77,50.63 -40.24,101.25 -66.2,150.58 -66.2,144.09 -141.49,281.69 -194.71,430.97 -46.73,131.11 -77.89,267.41 -103.85,403.71 -15.58,80.48 -35.05,160.96 -40.24,244.04 -6.49,88.27 -24.66,176.54 -36.35,263.51 0,2.6 0,3.89 0,6.49 -3.89,75.29 -7.79,149.28 -14.28,224.57 -16.88,190.82 -15.58,382.94 -10.38,575.06 2.6,90.87 10.38,183.03 22.07,273.9 9.09,76.59 22.07,151.88 51.92,220.68 44.14,101.25 92.16,201.2 159.67,289.47 23.37,32.45 45.43,64.9 71.4,101.25 45.43,-29.86 88.27,-53.22 127.21,-83.08 76.59,-58.41 163.56,-55.82 251.83,-51.92 6.49,0 11.68,3.89 18.17,7.79 29.86,15.58 71.4,22.07 75.29,62.31 3.89,41.54 -25.96,73.99 -57.12,94.76 -71.4,46.73 -145.39,86.97 -218.08,129.81 -6.49,3.89 -14.28,7.79 -24.66,14.28 41.54,63.61 103.85,102.55 167.45,136.3 111.64,58.41 227.17,105.15 363.47,101.25 5.19,-35.05 15.58,-70.1 16.88,-103.85 2.6,-68.8 50.63,-128.51 116.83,-150.58 25.96,-9.09 44.14,-5.19 50.63,19.47 12.98,48.03 37.64,94.76 19.47,147.98 -7.79,20.77 -3.89,45.43 -6.49,75.29 76.59,-16.88 141.49,-44.14 207.69,-70.1 63.61,-25.96 124.62,-54.52 198.61,-81.78 -7.79,44.14 -35.05,57.12 -53.22,76.59 -15.58,16.88 -20.77,31.15 -5.19,50.63 14.28,18.17 25.96,40.24 42.84,54.52 61.01,49.33 75.29,115.53 77.89,188.22 1.3,23.37 5.19,45.43 7.79,77.89 -45.43,20.77 -98.66,32.45 -153.18,24.66 -45.43,-6.49 -83.08,-35.05 -102.55,-79.18 -19.47,-42.84 -33.75,-85.67 -50.63,-129.81 -5.19,-11.68 -9.09,-23.37 -12.98,-35.05 -9.09,-23.37 -23.37,-31.15 -50.63,-22.07 -72.69,23.37 -147.98,31.15 -224.57,37.64 -66.2,5.19 -129.81,-5.19 -196.01,-5.19 -46.73,0 -93.46,-20.77 -141.49,-31.15 -14.28,-2.6 -28.56,-3.89 -41.54,-6.49 -20.77,38.94 2.6,68.8 9.09,101.25 6.49,25.96 18.17,51.92 20.77,79.18 11.68,96.06 -46.73,159.67 -112.93,225.87 -51.92,-19.47 -105.15,-40.24 -157.07,-61.01 -75.29,-29.86 -116.83,-135 -98.66,-220.68 18.17,-79.18 44.14,-154.47 83.08,-225.87 23.37,-44.14 20.77,-45.43 -19.47,-83.08 -84.38,-76.59 -158.37,-163.56 -225.87,-255.72 -49.33,-68.8 -98.66,-137.6 -153.18,-215.48 -1.3,23.37 -2.6,36.35 -3.89,50.63 -5.19,225.87 -3.89,453.03 -15.58,678.9 -5.19,106.44 -19.47,214.19 -42.84,320.63 -42.84,186.93 -98.66,369.96 -144.09,556.88 -18.17,76.59 -16.88,157.07 -19.47,236.25 -5.19,132.41 41.54,250.53 112.93,351.78 67.5,96.06 159.67,171.35 275.2,214.19 59.71,22.07 116.83,48.03 181.73,55.82 19.47,1.3 37.64,7.79 55.82,7.79 54.52,1.3 107.74,2.6 162.26,0 207.69,-7.79 359.57,-105.15 460.82,-285.58 48.03,-85.67 67.5,-176.54 66.2,-275.2 0,-81.78 -10.38,-160.96 -40.24,-237.55 -42.84,-107.74 -111.64,-194.71 -212.89,-254.43 -72.69,-44.14 -150.58,-77.89 -236.25,-88.27 -109.04,-12.98 -211.59,14.28 -305.05,71.4 -92.16,57.12 -149.28,142.79 -175.24,244.04 -36.35,142.79 -5.19,271.3 99.95,380.34 68.8,72.69 151.88,105.15 250.53,107.74 59.71,2.6 107.74,-24.66 150.58,-59.71 61.01,-49.33 89.57,-120.72 101.25,-193.42 11.68,-70.1 -15.58,-135 -75.29,-180.43 -41.54,-31.15 -76.59,-28.56 -114.23,7.79 -63.61,61.01 -72.69,118.13 -31.15,201.2 10.38,20.77 19.47,41.54 28.56,62.31 -79.18,31.15 -173.94,-54.52 -181.73,-128.51 -7.79,-83.08 11.68,-157.07 72.69,-216.78 14.28,-12.98 27.26,-27.26 41.54,-41.54 23.37,-23.37 51.92,-32.45 86.97,-35.05 68.8,-6.49 127.21,12.98 179.14,54.52 50.63,40.24 89.57,89.57 114.23,150.58 29.86,75.29 33.75,149.28 3.89,223.27 -36.35,89.57 -92.16,159.67 -177.84,210.29 -97.36,58.41 -201.2,73.99 -308.95,59.71 -111.64,-14.28 -206.4,-66.2 -277.79,-162.26 -57.12,-76.59 -80.48,-159.67 -101.25,-250.53 -24.66,-112.93 12.98,-212.89 44.14,-315.44 7.79,-27.26 27.26,-53.22 45.43,-76.59 77.89,-89.57 164.86,-168.75 284.28,-196.01 42.84,-10.38 86.97,-18.17 131.11,-22.07 36.35,-3.89 73.99,0 110.34,-1.3 125.92,-3.89 240.15,36.35 340.1,107.74 129.81,93.46 212.89,223.27 253.13,379.04 19.47,73.99 33.75,150.58 25.96,227.17 -14.28,136.3 -49.33,266.11 -136.3,376.45 -119.42,153.18 -275.2,240.15 -466.02,272.6 -210.29,35.05 -403.71,-5.19 -586.74,-114.23 -62.31,-37.64 -123.32,-79.18 -173.94,-129.81 -106.44,-106.44 -186.93,-231.06 -221.97,-380.34 -3.89,-15.58 -10.38,-31.15 -15.58,-48.03 -37.64,-11.68 -63.61,6.49 -88.27,28.56 -83.08,73.99 -164.86,150.58 -250.53,221.97 -76.59,64.9 -157.07,123.32 -237.55,184.33 -98.66,73.99 -197.31,149.28 -297.26,220.68 -115.53,83.08 -220.68,177.84 -318.03,280.39 -142.79,147.98 -250.53,315.44 -295.97,519.24 -9.09,41.54 -11.68,84.38 -18.17,125.92 -2.6,19.47 -6.49,37.64 -9.09,55.82 -1.3,10.38 -3.89,22.07 -2.6,31.15 9.09,80.48 12.98,160.96 28.56,240.15 14.28,73.99 36.35,146.68 62.31,218.08 41.54,116.83 105.15,221.97 184.33,319.33 22.07,25.96 42.84,53.22 66.2,77.89 155.77,163.56 342.7,279.09 560.78,340.1 46.73,12.98 96.06,15.58 142.79,27.26 50.63,12.98 102.55,14.28 153.18,11.68 127.21,-6.49 249.23,-36.35 368.66,-86.97 151.88,-66.2 271.3,-171.35 376.45,-293.37 118.13,-136.3 197.31,-295.97 246.64,-468.61 11.68,-40.24 11.68,-84.38 16.88,-125.92 2.6,-19.47 6.49,-37.64 10.38,-55.82 1.3,-10.38 3.89,-22.07 2.6,-32.45 -15.58,-93.46 -18.17,-189.52 -53.22,-279.09 -61.01,-155.77 -150.58,-288.18 -285.58,-393.32 -92.16,-72.69 -190.82,-124.62 -302.46,-159.67 -45.43,-14.28 -89.57,-23.37 -136.3,-24.66 -48.03,-2.6 -94.76,-3.89 -142.79,0 -141.49,9.09 -263.51,62.31 -368.66,155.77 -84.38,75.29 -157.07,162.26 -206.4,267.41 -58.41,127.21 -92.16,259.62 -72.69,397.22 22.07,162.26 88.27,305.05 233.66,399.81 99.95,64.9 207.69,83.08 323.23,53.22 149.28,-38.94 264.81,-128.51 346.59,-255.72 49.33,-75.29 67.5,-164.86 20.77,-249.23 -50.63,-92.16 -116.83,-132.41 -215.48,-115.53 -40.24,6.49 -80.48,29.86 -112.93,55.82 -66.2,54.52 -48.03,133.7 33.75,163.56 27.26,10.38 54.52,20.77 84.38,32.45 -35.05,71.4 -79.18,123.32 -147.98,159.67 -66.2,35.05 -175.24,-2.6 -203.8,-58.41 -31.15,-61.01 -48.03,-120.72 -32.45,-194.71 15.58,-75.29 44.14,-142.79 81.78,-205.1 41.54,-68.8 101.25,-119.42 177.84,-149.28 93.46,-36.35 189.52,-40.24 281.69,-10.38 163.56,53.22 264.81,168.75 290.77,340.1 14.28,93.46 -10.38,185.63 -46.73,273.9 -32.45,80.48 -81.78,150.58 -140.19,211.59 -85.67,90.87 -190.82,159.67 -311.54,193.42 -98.66,27.26 -201.2,25.96 -305.05,6.49 -110.34,-20.77 -211.59,-63.61 -301.16,-128.51 -136.3,-98.66 -231.06,-231.06 -279.09,-394.62 -31.15,-109.04 -36.35,-219.38 -20.77,-333.61 19.47,-147.98 80.48,-275.2 158.37,-398.51 118.13,-186.93 285.58,-312.84 493.28,-386.83 131.11,-45.43 267.41,-59.71 403.71,-44.14 119.42,12.98 236.25,40.24 347.89,90.87 118.13,53.22 223.27,123.32 315.44,214.19 98.66,97.36 162.26,218.08 219.38,342.7 44.14,97.36 66.2,201.2 75.29,306.35 9.09,97.36 9.09,196.01 -6.49,295.97 -12.98,81.78 -27.26,162.26 -53.22,240.15 -62.31,186.93 -160.96,350.49 -299.86,490.68 -88.27,89.57 -185.63,166.16 -295.97,220.68 -109.04,54.52 -220.68,107.74 -345.29,119.42 -18.17,1.3 -20.77,11.68 -19.47,25.96 -12.98,0 -25.96,0 -38.94,0 -1.3,-2.6 -2.6,-6.49 -3.89,-9.09 -2.6,2.6 -6.49,6.49 -9.09,9.09 -120.72,0 -242.74,0 -363.47,0 -2.6,-2.6 -6.49,-6.49 -9.09,-9.09 -1.3,2.6 -2.6,6.49 -3.89,9.09 -12.98,0 -25.96,0 -38.94,0 -3.89,-9.09 -6.49,-22.07 -12.98,-24.66 -14.28,-3.89 -29.86,0 -44.14,-3.89 -154.47,-46.73 -302.46,-107.74 -437.46,-198.61 -133.7,-89.57 -245.34,-198.61 -346.59,-321.93 -96.06,-115.53 -164.86,-246.64 -215.48,-386.83 -49.33,-135 -79.18,-272.6 -71.4,-417.99 1.3,-35.05 0,-68.8 1.3,-103.85 0,-12.98 -1.3,-25.96 1.3,-38.94 24.66,-76.59 25.96,-155.77 23.37,-234.95 0,-11.68 -3.89,-22.07 -9.09,-46.73 -240.15,255.72 -495.87,471.21 -826.89,593.23 7.79,45.43 14.28,90.87 25.96,135 27.26,103.85 46.73,207.69 16.88,314.14 -19.47,68.8 -42.84,136.3 -102.55,179.14 -48.03,33.75 -101.25,63.61 -155.77,85.67 -79.18,32.45 -163.56,55.82 -244.04,85.67 -23.37,9.09 -44.14,10.38 -67.5,1.3 0,-120.72 -2.6,-240.15 1.3,-358.27 2.6,-67.5 22.07,-131.11 72.69,-185.63 44.14,-48.03 88.27,-102.55 109.04,-176.54 -86.97,0 -167.45,0 -249.23,0 -79.18,0 -155.77,-15.58 -232.36,-33.75 -115.53,-27.26 -224.57,-73.99 -331.01,-124.62 -44.14,-20.77 -86.97,-45.43 -131.11,-64.9 -42.84,-19.47 -71.4,-11.68 -93.46,24.66 -25.96,38.94 -53.22,76.59 -76.59,116.83 -37.64,62.31 -93.46,99.95 -160.96,115.53 -67.5,15.58 -137.6,25.96 -206.4,29.86 -54.52,2.6 -109.04,-7.79 -164.86,-11.68 0,-22.07 0,-42.84 0,-64.9 2.6,-2.6 6.49,-6.49 9.09,-9.09 -2.6,-1.3 -6.49,-2.6 -9.09,-3.89 -2.6,-10.38 -2.6,-18.17 -2.6,-27.26z"/>
  </g>
 </g>
</svg>
