<svg width="64" height="80" viewBox="0 0 64 80" fill="none" xmlns="http://www.w3.org/2000/svg">
<path d="M0.0149953 69.1384C0.0999045 68.96 0.173364 68.7763 0.234927 68.5886C0.371671 68.0304 0.635412 67.5113 1.00561 67.0718C1.37581 66.6322 1.84247 66.284 2.36926 66.0544C2.82912 65.8394 3.30397 65.6595 3.77382 65.4645L4.40362 65.1896C4.23868 65.0197 4.1437 64.8797 4.02374 64.7897C3.3522 64.2317 2.81059 63.5337 2.43677 62.7446C2.06294 61.9555 1.8659 61.0943 1.85942 60.2212C1.80919 58.8809 2.09984 57.5498 2.70415 56.3524C2.77413 56.2224 2.84911 56.0925 2.90909 55.9625C2.96907 55.8325 3.01406 55.7326 3.09903 55.5426C2.91466 55.3323 2.71411 55.1368 2.49922 54.9578C2.06499 54.6551 1.76852 54.1926 1.67482 53.6716C1.58112 53.1506 1.69783 52.6137 1.99938 52.1787L2.60918 51.334C2.95107 51.416 3.2603 51.5991 3.49658 51.8594C3.73286 52.1198 3.88521 52.4453 3.93377 52.7935C3.99375 53.1684 4.01874 53.5483 4.07373 53.9281C4.10872 54.1581 4.1687 54.378 4.23368 54.6779C4.68853 54.5579 5.1184 54.473 5.53327 54.343C6.15608 54.1293 6.81655 54.0476 7.47266 54.1031C7.95243 54.1327 8.40887 54.3204 8.77062 54.6369C9.13236 54.9535 9.37903 55.381 9.47204 55.8525C9.52236 56.1223 9.51118 56.3999 9.43935 56.6647C9.36752 56.9295 9.23689 57.1747 9.05717 57.3821V56.7273C9.08251 56.4627 9.04991 56.1958 8.96162 55.9451C8.87333 55.6944 8.73149 55.466 8.54595 55.2757C8.36041 55.0854 8.13564 54.9378 7.88727 54.8432C7.6389 54.7486 7.3729 54.7093 7.10778 54.7279C6.08349 54.6576 5.06873 54.9633 4.25367 55.5876C3.78442 55.9567 3.42067 56.4429 3.199 56.9972C2.92047 57.7072 2.75192 58.4556 2.69916 59.2165C2.80103 59.2509 2.90997 59.2588 3.01576 59.2396C3.12155 59.2204 3.22072 59.1746 3.30397 59.1065C3.74271 58.8355 4.26472 58.7325 4.77351 58.8166C5.35833 58.8816 5.93814 58.9816 6.60294 59.0815C6.4815 59.356 6.29983 59.5996 6.07139 59.7943C5.84295 59.989 5.57361 60.1298 5.28335 60.2062C4.91688 60.3096 4.53926 60.3683 4.1587 60.3811C3.65886 60.4111 3.199 60.3811 2.65917 60.3811C2.63109 61.0067 2.79505 61.6259 3.12902 62.1556C3.66498 63.1466 4.39411 64.0202 5.27335 64.7248C6.43596 65.6702 7.72888 66.4429 9.11215 67.0191C9.17713 66.2743 9.18713 65.5645 9.31709 64.8747C9.52059 64.1847 9.87389 63.5481 10.3518 63.0103C10.7852 63.127 11.171 63.3771 11.4545 63.7251C11.7379 64.0732 11.9047 64.5016 11.9313 64.9497C11.9208 65.6884 11.8691 66.426 11.7763 67.159C11.7763 67.3639 11.7163 67.5789 11.6913 67.7788C13.3308 68.22 15.0429 68.3235 16.7235 68.0829C18.4042 67.8423 20.0184 67.2627 21.4683 66.3793C20.2555 66.1314 19.1618 65.4815 18.3643 64.5348C17.6191 63.545 17.1748 62.3615 17.0847 61.1259C17.8959 61.0694 18.7106 61.0861 19.5189 61.1759C19.7894 61.2236 20.0565 61.2887 20.3187 61.3708C20.7414 61.4781 21.1361 61.6752 21.4759 61.9486C21.8157 62.222 22.0927 62.5654 22.288 62.9553C22.458 63.2752 22.6179 63.6001 22.7879 63.905C22.9916 64.3285 23.3312 64.6717 23.7526 64.8797C26.6369 62.7204 29.0546 60.0001 30.8604 56.8822C30.2676 56.7372 29.6508 56.7201 29.0509 56.8322C27.5826 57.0579 26.093 57.1116 24.6123 56.9922C22.9492 56.8126 21.3152 56.4247 19.7488 55.8375C18.2949 55.3089 16.9036 54.6216 15.6001 53.7882C14.1345 52.8424 12.8706 51.6159 11.8813 50.1793C10.3499 48.0101 9.325 45.5247 8.88222 42.9066C8.47171 40.5573 8.60162 38.1454 9.2621 35.8538C10.0572 32.9635 11.4826 30.2852 13.4358 28.0112C15.718 25.4454 18.7537 23.6677 22.1081 22.9328C25.0404 22.1767 28.1318 22.3142 30.9853 23.3277C33.601 24.2034 35.8745 25.8805 37.4833 28.1212C38.7972 29.9807 39.5862 32.1596 39.7676 34.4292C39.9855 36.7158 39.6263 39.0204 38.7229 41.1321C38.0771 42.7451 37.0742 44.1907 35.7894 45.3603C34.5047 46.5299 32.9715 47.3931 31.3052 47.885C29.7539 48.4072 28.1147 48.6178 26.4817 48.5048C24.7627 48.4361 23.0995 47.876 21.6891 46.8908C20.2788 45.9057 19.1804 44.5369 18.5242 42.9466C18.0425 41.9283 17.7835 40.8189 17.7644 39.6926C17.663 38.0822 18.0277 36.4767 18.8148 35.0681C19.602 33.6595 20.7783 32.5076 22.2031 31.7501C23.1383 31.2075 24.2128 30.9527 25.2921 31.0176C26.3714 31.0825 27.4077 31.4642 28.2712 32.115C29.1601 32.6904 29.8671 33.5067 30.3096 34.4688C30.7521 35.4308 30.9119 36.4988 30.7704 37.5483C30.6661 38.558 30.2393 39.5072 29.5533 40.2554C28.8673 41.0035 27.9585 41.5108 26.9616 41.702C26.6055 41.7888 26.2349 41.7985 25.8747 41.7306C25.5145 41.6627 25.173 41.5186 24.873 41.308C24.573 41.0974 24.3214 40.8252 24.135 40.5095C23.9487 40.1939 23.832 39.8421 23.7926 39.4777C23.7078 38.5921 23.7806 37.6986 24.0075 36.8385C24.0075 36.7835 24.0825 36.7385 24.1275 36.6835C24.3574 36.9934 24.5673 37.3133 24.8172 37.5933C25.0106 37.8482 25.2633 38.052 25.5534 38.187C25.8435 38.3221 26.1622 38.3842 26.4817 38.368C26.6312 38.3759 26.779 38.3327 26.9007 38.2455C27.0224 38.1583 27.1109 38.0323 27.1515 37.8882C27.3844 37.2263 27.4513 36.5175 27.3465 35.8238C27.3062 35.5101 27.1976 35.209 27.0283 34.9417C26.8591 34.6745 26.6334 34.4476 26.367 34.277C26.1006 34.1064 25.8001 33.9963 25.4866 33.9543C25.1731 33.9124 24.8542 33.9397 24.5523 34.0344C23.9792 34.1543 23.4399 34.3999 22.9732 34.7534C22.5064 35.1069 22.1239 35.5596 21.8532 36.0787C21.0152 37.5282 20.7648 39.2437 21.1534 40.8722C21.3711 41.8095 21.8241 42.6758 22.4695 43.3894C23.1149 44.103 23.9315 44.6405 24.8422 44.9509C26.1613 45.478 27.5967 45.6456 29.0017 45.4366C30.4067 45.2276 31.7311 44.6495 32.8397 43.7613C34.769 42.2989 36.0899 40.1752 36.5486 37.7982C36.7605 36.8909 36.8562 35.9604 36.8335 35.0291C36.8159 33.7871 36.5304 32.5635 35.9964 31.442C35.4624 30.3206 34.6926 29.3276 33.7395 28.5311C31.859 26.8851 29.4978 25.8895 27.0066 25.692C23.7755 25.3179 20.5194 26.1413 17.8544 28.0062C15.6017 29.5908 13.8706 31.809 12.881 34.3793C12.097 36.2325 11.7138 38.2306 11.7563 40.2424C11.8057 43.4161 12.962 46.4728 15.0253 48.8847C17.2012 51.467 20.2034 53.2171 23.5226 53.8382C26.2428 54.3508 29.0478 54.1791 31.6851 53.3383C34.7086 52.4766 37.4965 50.9383 39.8376 48.8397C42.3481 46.5669 44.009 43.5062 44.5461 40.1624C44.8393 38.6006 44.9717 37.0128 44.941 35.4239C44.891 33.4745 44.806 31.5251 44.721 29.5808C44.646 27.4814 44.5461 25.3921 44.4311 23.2877C44.4011 22.6729 44.3761 22.0631 44.3711 21.4483C44.3405 18.8186 44.5076 16.1904 44.871 13.5858C45.1974 10.6379 45.9151 7.74668 47.0053 4.98844C47.5551 3.70884 48.1999 2.48922 48.7948 1.19963C48.9797 0.809747 49.2946 0.474852 49.2946 0H49.9294C49.9694 0.0399875 50.0044 0.114964 50.0444 0.119963C50.8458 0.326486 51.6076 0.664283 52.2987 1.11965C52.2269 1.36078 52.1418 1.59774 52.0437 1.82943C51.6589 2.62918 51.289 3.44392 50.8541 4.21368C49.6091 6.55405 48.7723 9.08962 48.3799 11.7113C47.9356 14.1715 47.67 16.6605 47.5851 19.159C47.5351 20.8735 47.4952 22.5879 47.5252 24.3074C47.5546 25.3222 47.6497 26.334 47.8101 27.3365C48.0973 28.7793 48.6923 30.1432 49.5545 31.3352C49.8494 31.7901 50.1743 32.2249 50.5092 32.6998C51.0091 32.3699 51.4539 32.09 51.8938 31.7951C52.2344 31.5776 52.6149 31.4302 53.0131 31.3615C53.4114 31.2928 53.8193 31.3043 54.2131 31.3952C54.5729 31.4552 55.0178 31.5551 55.1028 32C55.1163 32.1817 55.0761 32.3634 54.9873 32.5225C54.8984 32.6815 54.7648 32.811 54.6029 32.8947C54.0331 33.2946 53.4283 33.6395 52.8285 34.0044C52.6186 34.1343 52.3886 34.2343 52.1687 34.3493C52.8341 35.0853 53.6461 35.6741 54.5526 36.0778C55.459 36.4815 56.4398 36.6912 57.432 36.6935C57.482 36.3336 57.542 35.9638 57.592 35.5889C57.6125 35.2052 57.7795 34.844 58.0585 34.5799C58.3375 34.3157 58.7073 34.1688 59.0915 34.1693C59.4343 34.919 59.4964 35.7669 59.2665 36.5586C59.4138 36.5696 59.5619 36.5595 59.7063 36.5286C60.706 36.1387 61.7057 35.7288 62.7054 35.339C62.8903 35.264 63.0903 35.229 63.2852 35.174L62.6254 36.0637C62.7031 36.3989 62.8937 36.6972 63.1653 36.9085C63.3784 37.0829 63.5523 37.3005 63.6755 37.5468C63.7986 37.7932 63.8684 38.0628 63.88 38.338C63.88 38.7129 63.955 39.0928 64 39.5276C63.4992 39.6991 62.9665 39.7571 62.4405 39.6976C62.2405 39.6647 62.0516 39.5832 61.8904 39.4603C61.7292 39.3375 61.6005 39.1769 61.5158 38.9928C61.3658 38.6879 61.2709 38.363 61.1509 38.0481C61.0309 37.7332 60.901 37.3883 60.756 37.0134C59.7174 37.3614 58.6272 37.5304 57.532 37.5133C56.4413 37.5002 55.3596 37.3129 54.328 36.9585C54.373 37.2833 54.388 37.5083 54.438 37.7232C54.489 37.9498 54.5576 38.172 54.6429 38.388C54.7609 38.6632 54.8046 38.9646 54.7695 39.262C54.7344 39.5593 54.6218 39.8423 54.443 40.0825C53.6932 41.1671 53.8982 41.0822 52.6685 40.7023C52.3846 40.6444 52.1166 40.5254 51.8831 40.3536C51.6497 40.1819 51.4563 39.9614 51.3166 39.7075C51.1768 39.4536 51.0939 39.1724 51.0736 38.8832C51.0533 38.5941 51.0961 38.3041 51.199 38.0331C51.3619 37.4878 51.5555 36.9521 51.7788 36.4286C51.8838 36.1537 52.0137 35.8888 52.1537 35.5689C50.5614 34.1122 49.1787 32.4418 48.045 30.6054C48.045 30.8804 47.995 31.0353 47.995 31.1953C47.96 32.6948 47.885 34.1943 47.905 35.6938C47.9039 38.5143 47.4845 41.3189 46.6604 44.0162C46.3529 45.0273 46.1042 46.0554 45.9156 47.0953C45.7052 48.0742 45.7252 49.0887 45.9742 50.0585C46.2232 51.0284 46.6942 51.927 47.3502 52.6835C48.0348 53.4377 48.8925 54.014 49.8494 54.363C51.376 54.9776 53.0545 55.1084 54.6579 54.7379C55.7792 54.4678 56.7831 53.8425 57.52 52.9552C58.2568 52.0679 58.6871 50.9662 58.7466 49.8144C58.8301 49.0532 58.7565 48.2829 58.5304 47.5513C58.3043 46.8196 57.9305 46.1422 57.432 45.5608C56.8271 44.8131 56.0237 44.2511 55.114 43.939C54.2044 43.627 53.2252 43.5775 52.2887 43.7963C51.3951 43.9813 50.5905 44.4634 50.0059 45.1641C49.4214 45.8648 49.0914 46.7428 49.0697 47.6551C49.0052 48.5117 49.2429 49.3638 49.7415 50.0633C50.2401 50.7628 50.968 51.2654 51.7988 51.4839C52.3294 51.6558 52.9031 51.6387 53.4225 51.4355C53.9418 51.2323 54.3748 50.8555 54.6479 50.3693C54.8717 50.0583 55.021 49.7 55.0843 49.3221C55.1476 48.9442 55.1231 48.5569 55.0128 48.1899C54.9487 47.9892 54.8525 47.8001 54.7279 47.6301C54.6366 47.4473 54.4914 47.2968 54.312 47.199C54.1326 47.1012 53.9274 47.0607 53.7243 47.083C53.5211 47.1053 53.3297 47.1894 53.1758 47.3239C53.0219 47.4583 52.9129 47.6367 52.8635 47.835C52.7464 48.0633 52.6879 48.3171 52.6931 48.5736C52.6984 48.8301 52.7672 49.0813 52.8935 49.3046C53.0184 49.5245 53.1484 49.7345 53.2784 49.9594C53.0738 50.0025 52.8626 50.0024 52.6581 49.959C52.4537 49.9157 52.2605 49.8301 52.0911 49.7077C51.9216 49.5854 51.7797 49.4289 51.6742 49.2485C51.5688 49.068 51.5023 48.8675 51.4789 48.6598C51.4275 48.1399 51.5258 47.6162 51.7623 47.1503C51.9987 46.6845 52.3635 46.296 52.8135 46.0306C53.1051 45.8759 53.4316 45.7987 53.7616 45.8066C54.0916 45.8145 54.414 45.9071 54.6979 46.0756C55.161 46.3055 55.5628 46.6421 55.8703 47.0577C56.1778 47.4733 56.3822 47.956 56.4667 48.466C56.5511 48.9761 56.5132 49.4989 56.356 49.9914C56.1988 50.484 55.9269 50.9321 55.5626 51.299C55.0336 51.8871 54.3545 52.3201 53.5981 52.5517C52.8417 52.7833 52.0366 52.8047 51.269 52.6136C50.4882 52.4708 49.7665 52.102 49.1934 51.5529C48.6202 51.0038 48.2209 50.2985 48.045 49.5245C47.7565 48.6471 47.7067 47.7086 47.9009 46.8056C48.095 45.9026 48.526 45.0675 49.1496 44.3861C49.9386 43.511 51.0115 42.9427 52.1787 42.7816C53.5794 42.4975 55.034 42.6601 56.3374 43.2465C57.156 43.6321 57.8785 44.195 58.4525 44.8944C59.0266 45.5938 59.4378 46.4122 59.6564 47.2902C60.0359 48.4249 60.0968 49.642 59.8324 50.809C59.568 51.9759 58.9884 53.0479 58.1568 53.9082C57.3256 54.7949 56.2849 55.4587 55.1303 55.8386C53.9758 56.2185 52.7443 56.3024 51.5489 56.0825C49.7527 55.8234 48.0812 55.013 46.7654 53.7632C45.6526 52.7657 44.8596 51.4614 44.4861 50.0144C44.4361 49.8094 44.3811 49.6095 44.3261 49.3996C44.1651 49.3723 43.9998 49.3874 43.8464 49.4435C43.693 49.4996 43.5569 49.5947 43.4514 49.7195C40.9375 51.9592 38.2992 54.0553 35.5489 55.9975C34.1582 57.042 32.8904 58.241 31.7701 59.5714C30.4458 61.1129 29.6566 63.042 29.5208 65.0697C29.35 67.1702 29.7415 69.2784 30.6551 71.1776C31.5687 73.0768 32.9714 74.6986 34.7192 75.8763C36.4952 77.1788 38.6349 77.892 40.8372 77.9156C43.0668 77.961 45.2353 77.1854 46.9303 75.7363C48.8184 74.1963 50.1837 72.1099 50.8391 69.7632C51.2792 68.1805 51.2463 66.5036 50.7445 64.9394C50.2426 63.3752 49.2938 61.9921 48.015 60.9609C46.9641 60.0631 45.7041 59.4442 44.3511 59.1615C43.1061 58.8567 41.799 58.9228 40.5911 59.3518C39.3832 59.7808 38.3272 60.5539 37.5533 61.5758C36.3041 63.0228 35.6708 64.9012 35.7888 66.8091C35.8361 67.8099 36.1464 68.7806 36.6885 69.6232C36.9805 70.1131 37.3684 70.5389 37.8289 70.8751C38.2895 71.2114 38.8133 71.4511 39.3688 71.58C39.9243 71.7088 40.5001 71.7241 41.0616 71.6249C41.6232 71.5257 42.1589 71.3141 42.6367 71.0028C43.3968 70.5747 44.0471 69.9758 44.5361 69.2534C44.9197 68.7403 45.1219 68.1144 45.1109 67.4739C45.1144 67.0664 44.9952 66.6673 44.7688 66.3286C44.5423 65.9898 44.2192 65.727 43.8413 65.5745C43.4865 65.4242 43.0958 65.3796 42.7163 65.4461C42.3368 65.5126 41.9845 65.6874 41.702 65.9494C41.5484 66.0398 41.4247 66.1734 41.3464 66.3336C41.2681 66.4937 41.2386 66.6733 41.2615 66.8501C41.2844 67.0269 41.3587 67.193 41.4752 67.3279C41.5917 67.4628 41.7453 67.5605 41.9169 67.6089C42.1818 67.7338 42.4667 67.8138 42.7766 67.9288C42.5396 68.5354 42.1069 69.0456 41.547 69.3783C41.3538 69.5008 41.1366 69.5804 40.9099 69.6115C40.6833 69.6426 40.4526 69.6246 40.2336 69.5587C40.0145 69.4928 39.8122 69.3805 39.6404 69.2295C39.4686 69.0785 39.3312 68.8923 39.2377 68.6835C38.967 68.0804 38.914 67.402 39.0878 66.7641C39.2097 65.9951 39.543 65.275 40.0505 64.6845C40.5581 64.094 41.2199 63.6562 41.9619 63.4202C42.6179 63.2257 43.3124 63.1995 43.9812 63.3442C44.65 63.4889 45.2716 63.7997 45.7886 64.248C46.3056 64.6962 46.7014 65.2675 46.9393 65.9091C47.1773 66.5506 47.2499 67.2418 47.1503 67.9188C46.9144 69.3054 46.2613 70.5871 45.278 71.5927C44.2946 72.5984 43.0279 73.2801 41.647 73.547C40.3154 73.7528 38.9527 73.5507 37.7382 72.9672C36.7 72.5201 35.782 71.8345 35.0585 70.966C34.335 70.0975 33.8266 69.0706 33.5745 67.9688C33.2021 66.4556 33.3104 64.8639 33.8844 63.4152C34.3202 62.1268 35.0239 60.9454 35.9492 59.9486C36.8745 58.9518 38.0003 58.1623 39.2527 57.632C40.7662 56.9998 42.4217 56.7858 44.0462 57.0122C45.5433 57.1862 46.9891 57.6641 48.2949 58.4167C50.2216 59.5354 51.6936 61.2959 52.4536 63.3902C53.0217 64.8454 53.2947 66.3991 53.257 67.9608C53.2192 69.5226 52.8714 71.0612 52.2337 72.4873C51.4774 74.3418 50.2672 75.9764 48.7143 77.2411C47.1614 78.5058 45.3156 79.3599 43.3465 79.7251C43.0266 79.8001 42.7166 79.89 42.4017 79.975H39.3477C39.2697 79.9298 39.1855 79.8961 39.0978 79.875C38.7079 79.7901 38.308 79.7451 37.9181 79.6451C34.7383 78.8272 31.9509 76.9094 30.0506 74.2318C28.3124 71.9814 27.4112 69.1964 27.5014 66.3543C27.5014 65.6595 27.6464 64.9647 27.7213 64.2699C27.8194 63.6993 27.8194 63.1161 27.7213 62.5455C26.8716 63.3552 26.1168 64.14 25.2821 64.8397C24.4474 65.5395 23.5077 66.2093 22.5829 66.8391C21.6581 67.4664 20.6482 67.9579 19.5839 68.2987C19.5892 68.5143 19.6059 68.7295 19.6339 68.9435C19.7188 69.3783 19.8188 69.8132 19.9388 70.238C20.2046 71.182 20.1767 72.1845 19.8588 73.1122C19.6342 73.8488 19.1275 74.4668 18.4492 74.8316C17.2642 75.4421 16.0176 75.9247 14.7304 76.2712C14.6293 76.2853 14.5266 76.2853 14.4255 76.2712C14.4255 74.9766 14.4255 73.732 14.4255 72.4823C14.4465 71.8413 14.7131 71.2328 15.1703 70.7829C15.6227 70.3217 15.972 69.7697 16.1949 69.1634C16.015 69.1634 15.87 69.1234 15.7301 69.1234C15.0553 69.1234 14.3705 69.1234 13.6957 69.1234C12.5075 69.1183 11.3314 68.8841 10.2318 68.4336C9.23212 67.9888 8.23243 67.5489 7.23274 67.084C6.52296 66.7541 6.23305 66.8291 5.82818 67.4689C5.63324 67.7938 5.41331 68.1087 5.18838 68.4136C4.88908 68.8005 4.50493 69.1135 4.06555 69.3284C3.62617 69.5433 3.1433 69.6544 2.65417 69.6532C1.77445 69.7232 0.889722 69.6532 0 69.6532C0 69.4583 0 69.2883 0 69.1234L0.0149953 69.1384Z" fill="white"/>
</svg>
